<svg fill="none" height="100%" width="100%" viewBox="0 0 200 200" xmlns:xlink="http://www.w3.org/1999/xlink" xmlns="http://www.w3.org/2000/svg"><g transform="matrix(1,0,0,1,-860,-440)" id="i0"><g id="i1" transform="matrix(1,0,0,1,959.875,599.358)"><path fill="#001440" fill-opacity="0.3" d="M68.132,8.14C68.132,8.14,-68.132,8.14,-68.132,8.14C-68.132,8.14,-68.132,-8.14,-68.132,-8.14C-68.132,-8.14,68.132,-8.14,68.132,-8.14C68.132,-8.14,68.132,8.14,68.132,8.14Z" /></g><g id="i2" transform="matrix(1,0,0,1,959.875,534.291)"><path fill="#268fff" d="M66.433,62.539C66.433,62.539,-66.434,62.539,-66.434,62.539C-67.372,62.539,-68.132,61.779,-68.132,60.841C-68.132,60.841,-68.132,-60.84,-68.132,-60.84C-68.132,-61.778,-67.372,-62.539,-66.434,-62.539C-66.434,-62.539,66.433,-62.539,66.433,-62.539C67.371,-62.539,68.131,-61.778,68.131,-60.84C68.131,-60.84,68.131,60.841,68.131,60.841C68.131,61.779,67.371,62.539,66.433,62.539Z" /></g><g id="i3" transform="matrix(1,0,0,1,959.875,534.292)"><path fill="#f7f7fa" d="M63.068,56.927C63.068,56.927,-63.069,56.927,-63.069,56.927C-63.069,56.927,-63.069,-56.927,-63.069,-56.927C-63.069,-56.927,63.068,-56.927,63.068,-56.927C63.068,-56.927,63.068,56.927,63.068,56.927Z" /></g><g id="i4" transform="matrix(1,0,0,1,959.874,481.448)"><path fill="#001440" fill-opacity="0.3" d="M63.069,4.082C63.069,4.082,-63.068,4.082,-63.068,4.082C-63.068,4.082,-63.068,-4.082,-63.068,-4.082C-63.068,-4.082,63.069,-4.082,63.069,-4.082C63.069,-4.082,63.069,4.082,63.069,4.082Z" /></g><g id="i5"><path stroke-miterlimit="10" stroke-width="1" stroke="#268fff" d="M959.875,481.847C959.875,481.847,959.875,489.403,959.875,489.403" /></g><g id="i6"><path stroke-miterlimit="10" stroke-width="1" stroke="#268fff" d="M959.875,579.18C959.875,579.18,959.875,586.736,959.875,586.736" /></g><g id="i7"><path stroke-miterlimit="10" stroke-width="1" stroke="#268fff" d="M907.43,534.291C907.43,534.291,914.986,534.291,914.986,534.291" /></g><g id="i8"><path stroke-miterlimit="10" stroke-width="1" stroke="#268fff" d="M1004.764,534.291C1004.764,534.291,1012.32,534.291,1012.32,534.291" /></g></g><g id="i9"><g transform="translate(99.875,94.291)"><g transform="rotate(0)"><animateTransform repeatCount="indefinite" type="rotate" attributeName="transform" dur="60.042s" begin="0s" calcMode="spline" values="0; 46080; 46080" keyTimes="0; 0.999306; 1" keySplines="0 0 1 1; 0 0 1 1" fill="freeze" /><g transform="scale(1,1) translate(-959.875,-534.291)"><g id="i8" transform="matrix(1,0,0,1,966.804,534.291)"><path fill="#268fff" d="M6.929,1.613C6.929,1.613,-6.929,1.613,-6.929,1.613C-6.929,1.613,-6.929,-1.613,-6.929,-1.613C-6.929,-1.613,6.929,-1.613,6.929,-1.613C6.929,-1.613,6.929,1.613,6.929,1.613Z" /></g></g></g></g></g><g id="i10"><g transform="translate(99.875,94.292)"><g transform="rotate(0)"><animateTransform repeatCount="indefinite" type="rotate" attributeName="transform" dur="60.042s" begin="0s" calcMode="spline" values="0; 2160; 2160" keyTimes="0; 0.999306; 1" keySplines="0 0 1 1; 0 0 1 1" fill="freeze" /><g transform="scale(1,1) translate(-959.875,-534.292)"><g id="i8" transform="matrix(1,0,0,1,959.875,520.784)"><path fill="#268fff" d="M1.573,-13.508C1.573,-13.508,-1.573,-13.508,-1.573,-13.508C-1.573,-13.508,-1.573,13.508,-1.573,13.508C-1.573,13.508,1.573,13.508,1.573,13.508C1.573,13.508,1.573,-13.508,1.573,-13.508Z" /></g></g></g></g></g><g transform="matrix(1,0,0,1,81.5,75.5)" id="i11"><g id="i12" transform="matrix(1,0,0,1,18.5,18.25)"><ellipse ry="5" rx="5" cy="0" cx="0" fill="#1c68ba" /></g></g></svg>