<svg fill="none" height="100%" width="100%" viewBox="0 0 512 512" xmlns:xlink="http://www.w3.org/1999/xlink" xmlns="http://www.w3.org/2000/svg"><defs><clipPath id="i0"><path d="M219.25,-43.952C219.25,-43.952,-102.75,-43.952,-102.75,-43.952C-102.75,-43.952,-102.75,344.048,-102.75,344.048C-102.75,344.048,219.25,344.048,219.25,344.048C219.25,344.048,219.25,-43.952,219.25,-43.952Z"><animate repeatCount="indefinite" begin="0s" keySplines="0.333 0 0.667 1; 0 0 1 1" calcMode="spline" fill="freeze" dur="0.8s" keyTimes="0; 0.5; 1" values="M219.25,-43.952C219.25,-43.952,-102.75,-43.952,-102.75,-43.952C-102.75,-43.952,-102.75,344.048,-102.75,344.048C-102.75,344.048,219.25,344.048,219.25,344.048C219.25,344.048,219.25,-43.952,219.25,-43.952Z; M219.25,40.048C219.25,40.048,-102.75,40.048,-102.75,40.048C-102.75,40.048,-102.75,428.048,-102.75,428.048C-102.75,428.048,219.25,428.048,219.25,428.048C219.25,428.048,219.25,40.048,219.25,40.048Z; M219.25,40.048C219.25,40.048,-102.75,40.048,-102.75,40.048C-102.75,40.048,-102.75,428.048,-102.75,428.048C-102.75,428.048,219.25,428.048,219.25,428.048C219.25,428.048,219.25,40.048,219.25,40.048Z" attributeName="d" /></path></clipPath><clipPath id="i1"><path d="M310.267,-12.202C310.267,-12.202,-11.733,-12.202,-11.733,-12.202C-11.733,-12.202,-11.733,389.798,-11.733,389.798C-11.733,389.798,310.267,389.798,310.267,389.798C310.267,389.798,310.267,-12.202,310.267,-12.202Z"><animate repeatCount="indefinite" begin="0s" keySplines="0.333 0 0.667 1; 0 0 1 1" calcMode="spline" fill="freeze" dur="0.8s" keyTimes="0; 0.5; 1" values="M310.267,-12.202C310.267,-12.202,-11.733,-12.202,-11.733,-12.202C-11.733,-12.202,-11.733,389.798,-11.733,389.798C-11.733,389.798,310.267,389.798,310.267,389.798C310.267,389.798,310.267,-12.202,310.267,-12.202Z; M310.267,67.798C310.267,67.798,-11.733,67.798,-11.733,67.798C-11.733,67.798,-11.733,469.798,-11.733,469.798C-11.733,469.798,310.267,469.798,310.267,469.798C310.267,469.798,310.267,67.798,310.267,67.798Z; M310.267,67.798C310.267,67.798,-11.733,67.798,-11.733,67.798C-11.733,67.798,-11.733,469.798,-11.733,469.798C-11.733,469.798,310.267,469.798,310.267,469.798C310.267,469.798,310.267,67.798,310.267,67.798Z" attributeName="d" /></path></clipPath></defs><g transform="matrix(1,0,0,1,72.75,51.952)" id="i2"><g id="i3" transform="matrix(1,0,0,1,153.25,178.25)"><path fill="#1a3175" d="M133,178C133,178,-133,178,-133,178C-144.046,178,-153,169.046,-153,158C-153,158,-153,-158,-153,-158C-153,-169.046,-144.046,-178,-133,-178C-133,-178,133,-178,133,-178C144.046,-178,153,-169.046,153,-158C153,-158,153,158,153,158C153,169.046,144.046,178,133,178Z" /></g></g><g transform="matrix(1,0,0,1,127.75,81.952)" id="i4"><g id="i5" transform="matrix(1,0,0,1,153.25,178.25)"><path fill="#ffffff" d="M-133,177.537C-143.772,177.537,-152.537,168.773,-152.537,158.001C-152.537,158.001,-152.537,-157.999,-152.537,-157.999C-152.537,-168.772,-143.772,-177.536,-133,-177.536C-133,-177.536,133,-177.536,133,-177.536C143.772,-177.536,152.536,-168.772,152.536,-157.999C152.536,-157.999,152.536,158.001,152.536,158.001C152.536,168.773,143.772,177.537,133,177.537C133,177.537,-133,177.537,-133,177.537Z" /></g><g id="i3" transform="matrix(1,0,0,1,153.25,178.25)"><path fill="#cccccc" fill-rule="evenodd" d="M133,-177.073C143.517,-177.073,152.073,-168.517,152.073,-158C152.073,-158,152.073,158,152.073,158C152.073,168.517,143.517,177.073,133,177.073C133,177.073,-133,177.073,-133,177.073C-143.517,177.073,-152.073,168.517,-152.073,158C-152.073,158,-152.073,-158,-152.073,-158C-152.073,-168.517,-143.517,-177.073,-133,-177.073C-133,-177.073,133,-177.073,133,-177.073ZM133,-178C133,-178,-133,-178,-133,-178C-144.046,-178,-153,-169.046,-153,-158C-153,-158,-153,158,-153,158C-153,169.046,-144.046,178,-133,178C-133,178,133,178,133,178C144.046,178,153,169.046,153,158C153,158,153,-158,153,-158C153,-169.046,144.046,-178,133,-178Z" /></g></g><g opacity="0" id="i6"><animate repeatCount="indefinite" attributeName="opacity" dur="0.8s" begin="0s" fill="freeze" values="NaN; 0; 0; 0; 0; 0; 0; 0; 0; 0; 0; 0; 0; 0; 0; 0; 0; 0; 0; 0; 0; 0; 0; 0; 0; 0; 0; 0; 0; 0; NaN; 0.031; 0.064; 0.1; 0.138; 0.177; 0.218; 0.26; 0.303; 0.347; 0.391; 0.435; 0.48; 0.524; 0.568; 0.611; 0.653; 0.694; 0.733; 0.771; 0.806; 0.84; 0.871; 0.899; 0.924; 0.946; 0.965; 0.98; 0.991; 0.998; 1; 1" keyTimes="0; 0.011112; 0.022223; 0.033335; 0.044447; 0.055559; 0.06667; 0.077781; 0.088893; 0.100005; 0.111117; 0.122228; 0.13334; 0.144452; 0.155564; 0.166675; 0.177787; 0.188898; 0.20001; 0.211122; 0.222233; 0.233345; 0.244457; 0.255568; 0.26668; 0.277792; 0.288904; 0.300015; 0.311126; 0.322238; 0.33335; 0.34446; 0.35557; 0.36668; 0.37779; 0.3889; 0.40001; 0.41112; 0.42223; 0.43334; 0.44445; 0.45556; 0.46667; 0.47778; 0.48889; 0.5; 0.51111; 0.52222; 0.53333; 0.54444; 0.55555; 0.56666; 0.577771; 0.58888; 0.59999; 0.6111; 0.62221; 0.633321; 0.64443; 0.655541; 0.66665; 1" calcMode="linear" /><g transform="translate(309.5,271.202) scale(1,1) translate(-86.75,-15.25)"><g id="i3" transform="matrix(1,0,0,1,86.75,15.25)"><path fill="#e6e6e6" d="M71.49,16.5C71.49,16.5,-72.99,15,-72.99,15C-80.451,15,-86.5,8.951,-86.5,1.49C-86.5,1.49,-86.5,-1.49,-86.5,-1.49C-86.5,-8.951,-80.451,-15,-72.99,-15C-72.99,-15,71.49,-13.5,71.49,-13.5C78.951,-13.5,85,-7.451,85,0.01C85,0.01,85,2.99,85,2.99C85,10.451,78.951,16.5,71.49,16.5Z" /></g></g></g><g opacity="0" id="i7"><animate repeatCount="indefinite" attributeName="opacity" dur="0.8s" begin="0s" fill="freeze" values="0; 0; 1; 1" keyTimes="0; 0.33335; 0.66665; 1" keySplines="0.333 0 0.667 1; 0.167 0 0.833 1; 0 0 1 1" calcMode="spline" /><g transform="translate(179.53,271.437) scale(1,1) translate(-17.014,-17.015)"><g id="i3" transform="matrix(1,0,0,1,17.014,17.015)"><path fill="#e6e6e6" d="M16.765,0C16.765,9.259,9.258,16.765,-0.001,16.765C-9.26,16.765,-16.765,9.259,-16.765,0C-16.765,-9.259,-9.26,-16.765,-0.001,-16.765C9.258,-16.765,16.765,-9.259,16.765,0Z" /></g></g></g><g id="i8"><g transform="translate(309.5,271.202)"><animateTransform repeatCount="indefinite" type="translate" attributeName="transform" dur="0.8s" begin="0s" calcMode="spline" values="309.5 271.202; 310.5 208.202; 310.5 208.202" keyTimes="0; 0.5; 1" keySplines="0.333 0 0.667 1; 0 0 1 1" fill="freeze" /><g transform="scale(1,1) translate(-86.75,-15.25)"><g id="i3" transform="matrix(1,0,0,1,86.75,15.25)"><path fill="#e6e6e6" d="M72.99,15C72.99,15,-72.99,15,-72.99,15C-80.451,15,-86.5,8.951,-86.5,1.49C-86.5,1.49,-86.5,-1.49,-86.5,-1.49C-86.5,-8.951,-80.451,-15,-72.99,-15C-72.99,-15,72.99,-15,72.99,-15C80.451,-15,86.5,-8.951,86.5,-1.49C86.5,-1.49,86.5,1.49,86.5,1.49C86.5,8.951,80.451,15,72.99,15Z" /></g></g></g></g><g id="i9"><g transform="translate(179.53,271.437)"><animateTransform repeatCount="indefinite" type="translate" attributeName="transform" dur="0.8s" begin="0s" calcMode="spline" values="179.53 271.437; 180.53 209.437; 180.53 209.437" keyTimes="0; 0.5; 1" keySplines="0 0 1 1; 0 0 1 1" fill="freeze" /><g transform="scale(1,1) translate(-17.014,-17.015)"><g id="i3" transform="matrix(1,0,0,1,17.014,17.015)"><path fill="#e6e6e6" d="M16.765,0C16.765,9.259,9.258,16.765,-0.001,16.765C-9.26,16.765,-16.765,9.259,-16.765,0C-16.765,-9.259,-9.26,-16.765,-0.001,-16.765C9.258,-16.765,16.765,-9.259,16.765,0Z" /></g></g></g></g><g id="i10"><g transform="translate(309.5,204.202)"><animateTransform repeatCount="indefinite" type="translate" attributeName="transform" dur="0.8s" begin="0s" calcMode="spline" values="309.5 204.202; 309.5 141.202; 309.5 141.202" keyTimes="0; 0.5; 1" keySplines="0 0 1 1; 0 0 1 1" fill="freeze" /><g transform="scale(1,1) translate(-86.75,-15.25)"><g id="i3" transform="matrix(1,0,0,1,86.75,15.25)" fill-rule="evenodd" fill="#1a3175" fill-opacity="0"><animate repeatCount="indefinite" attributeName="fill-opacity" dur="0.8s" begin="0s" fill="freeze" values="0; 1; 1" keyTimes="0; 0.33335; 1" keySplines="0.167 0.167 0.667 1; 0 0 1 1" calcMode="spline" /><path d="M-72.01,14.5C-72.01,14.5,-72.99,15,-72.99,15C-80.451,15,-86.5,8.951,-86.5,1.49C-86.5,1.49,-86.5,-1.49,-86.5,-1.49C-86.5,-8.951,-80.451,-15,-72.99,-15C-72.99,-15,-72.01,-15.5,-72.01,-15.5C-64.549,-15.5,-58.5,-9.451,-58.5,-1.99C-58.5,-1.99,-58.5,0.99,-58.5,0.99C-58.5,8.451,-64.549,14.5,-72.01,14.5Z"><animate repeatCount="indefinite" attributeName="d" dur="0.8s" begin="0s" calcMode="spline" values="M-72.01,14.5C-72.01,14.5,-72.99,15,-72.99,15C-80.451,15,-86.5,8.951,-86.5,1.49C-86.5,1.49,-86.5,-1.49,-86.5,-1.49C-86.5,-8.951,-80.451,-15,-72.99,-15C-72.99,-15,-72.01,-15.5,-72.01,-15.5C-64.549,-15.5,-58.5,-9.451,-58.5,-1.99C-58.5,-1.99,-58.5,0.99,-58.5,0.99C-58.5,8.451,-64.549,14.5,-72.01,14.5Z; M-72.01,14.5C-72.01,14.5,-72.99,15,-72.99,15C-80.451,15,-86.5,8.951,-86.5,1.49C-86.5,1.49,-86.5,-1.49,-86.5,-1.49C-86.5,-8.951,-80.451,-15,-72.99,-15C-72.99,-15,-72.01,-15.5,-72.01,-15.5C-64.549,-15.5,-58.5,-9.451,-58.5,-1.99C-58.5,-1.99,-58.5,0.99,-58.5,0.99C-58.5,8.451,-64.549,14.5,-72.01,14.5Z; M71.49,15C71.49,15,-72.99,15,-72.99,15C-80.451,15,-86.5,8.951,-86.5,1.49C-86.5,1.49,-86.5,-1.49,-86.5,-1.49C-86.5,-8.951,-80.451,-15,-72.99,-15C-72.99,-15,71.49,-15,71.49,-15C78.951,-15,85,-8.951,85,-1.49C85,-1.49,85,1.49,85,1.49C85,8.951,78.951,15,71.49,15Z; M71.49,15C71.49,15,-72.99,15,-72.99,15C-80.451,15,-86.5,8.951,-86.5,1.49C-86.5,1.49,-86.5,-1.49,-86.5,-1.49C-86.5,-8.951,-80.451,-15,-72.99,-15C-72.99,-15,71.49,-15,71.49,-15C78.951,-15,85,-8.951,85,-1.49C85,-1.49,85,1.49,85,1.49C85,8.951,78.951,15,71.49,15Z" keyTimes="0; 0.08335; 0.5; 1" keySplines="0 0 1 1; 0.333 0 0.667 1; 0 0 1 1" fill="freeze" /></path></g></g></g></g><g opacity="0" id="i11"><animate repeatCount="indefinite" attributeName="opacity" dur="0.8s" begin="0s" fill="freeze" values="0; 1; 1" keyTimes="0; 0.5; 1" keySplines="0 0 1 1; 0 0 1 1" calcMode="spline" /><g transform="translate(183.867,139.341) scale(1,1) translate(-48.133,-41.138)"><g id="i3" transform="matrix(1,0,0,1,48.133,41.139)"><path stroke-linejoin="round" stroke-linecap="round" stroke-width="12" stroke="#1a3175" d="M-18.133,0.455"><set fill="freeze" dur="0.02s" begin="0.46668s" to="M-18.133,0.455" attributeName="d" /><set fill="freeze" dur="0.02s" begin="0.48668s" to="M-18.133,0.455C-18.133,0.455,-16.843,1.437,-15.046,2.806" attributeName="d" /><set fill="freeze" dur="0.02s" begin="0.50668s" to="M-18.133,0.455C-18.133,0.455,-15.165,2.715,-11.96,5.156" attributeName="d" /><set fill="freeze" dur="0.02s" begin="0.52668s" to="M-18.133,0.455C-18.133,0.455,-12.94,4.409,-8.873,7.507" attributeName="d" /><set fill="freeze" dur="0.02s" begin="0.5466799999999999s" to="M-18.133,0.455C-18.133,0.455,-9.513,7.019,-5.786,9.857" attributeName="d" /><set fill="freeze" dur="0.02s" begin="0.56668s" to="M-18.133,0.455C-18.133,0.455,-4.103,11.139,-4.103,11.139C-4.103,11.139,-3.644,10.679,-2.857,9.89" attributeName="d" /><set fill="freeze" dur="0.02s" begin="0.58668s" to="M-18.133,0.455C-18.133,0.455,-4.103,11.139,-4.103,11.139C-4.103,11.139,-2.482,9.515,-0.116,7.144" attributeName="d" /><set fill="freeze" dur="0.02s" begin="0.60668s" to="M-18.133,0.455C-18.133,0.455,-4.103,11.139,-4.103,11.139C-4.103,11.139,-1.139,8.169,2.625,4.398" attributeName="d" /><set fill="freeze" dur="0.02s" begin="0.62668s" to="M-18.133,0.455C-18.133,0.455,-4.103,11.139,-4.103,11.139C-4.103,11.139,0.408,6.62,5.366,1.652" attributeName="d" /><set fill="freeze" dur="0.02s" begin="0.64668s" to="M-18.133,0.455C-18.133,0.455,-4.103,11.139,-4.103,11.139C-4.103,11.139,2.209,4.816,8.106,-1.094" attributeName="d" /></path></g></g></g><g id="i12"><animate repeatCount="indefinite" attributeName="opacity" dur="0.8s" begin="0s" fill="freeze" values="1; 0; 0" keyTimes="0; 0.33335; 1" keySplines="0 0 1 1; 0 0 1 1" calcMode="spline" /><g transform="translate(179.53,205.202)"><animateTransform repeatCount="indefinite" type="translate" attributeName="transform" dur="0.8s" begin="0s" calcMode="spline" values="179.53 205.202; 178.53 144.202; 178.53 144.202" keyTimes="0; 0.5; 1" keySplines="0 0 1 1; 0 0 1 1" fill="freeze" /><g transform="scale(1,1) translate(-17.014,-17.015)"><g id="i3" transform="matrix(1,0,0,1,17.014,17.015)" fill-rule="evenodd" fill="#1a3175" fill-opacity="0"><animate repeatCount="indefinite" attributeName="fill-opacity" dur="0.8s" begin="0s" fill="freeze" values="0; 1; 1" keyTimes="0; 0.5; 1" keySplines="0 0 1 1; 0 0 1 1" calcMode="spline" /><path fill="#e6e6e6" d="M16.765,0C16.765,9.259,9.258,16.765,-0.001,16.765C-9.26,16.765,-16.765,9.259,-16.765,0C-16.765,-9.259,-9.26,-16.765,-0.001,-16.765C9.258,-16.765,16.765,-9.259,16.765,0Z" /></g></g></g></g><g id="i13"><animate repeatCount="indefinite" attributeName="opacity" dur="0.8s" begin="0s" fill="freeze" values="1; 0.01; 0.01" keyTimes="0; 0.25; 1" keySplines="0.167 0.167 0.667 1; 0 0 1 1" calcMode="spline" /><g transform="translate(309.5,137.202)"><animateTransform repeatCount="indefinite" type="translate" attributeName="transform" dur="0.8s" begin="0s" calcMode="spline" values="309.5 137.202; 308.5 55.202; 308.5 55.202" keyTimes="0; 0.5; 1" keySplines="0.333 0 0.667 1; 0 0 1 1" fill="freeze" /><g transform="scale(1,1) translate(-86.75,-15.25)"><g clip-path="url(#i0)" id="i14"><g id="i3" transform="matrix(1,0,0,1,86.75,15.25)"><path fill="#1a3175" d="M72.99,15C72.99,15,-72.99,15,-72.99,15C-80.451,15,-86.5,8.951,-86.5,1.49C-86.5,1.49,-86.5,-1.49,-86.5,-1.49C-86.5,-8.951,-80.451,-15,-72.99,-15C-72.99,-15,72.99,-15,72.99,-15C80.451,-15,86.5,-8.951,86.5,-1.49C86.5,-1.49,86.5,1.49,86.5,1.49C86.5,8.951,80.451,15,72.99,15Z" /></g></g></g></g></g><g id="i15"><animate repeatCount="indefinite" attributeName="opacity" dur="0.8s" begin="0s" fill="freeze" values="1; 0; 0" keyTimes="0; 0.25; 1" keySplines="0.167 0 0.667 1; 0 0 1 1" calcMode="spline" /><g transform="translate(183.867,135.341)"><animateTransform repeatCount="indefinite" type="translate" attributeName="transform" dur="0.8s" begin="0s" calcMode="spline" values="183.867 135.341; 182.867 51.341; 182.867 51.341" keyTimes="0; 0.5; 1" keySplines="0.333 0 0.667 1; 0 0 1 1" fill="freeze" /><g transform="scale(1,1) translate(-48.133,-41.138)"><g clip-path="url(#i1)" id="i16"><g id="i3" transform="matrix(1,0,0,1,48.133,41.139)"><path stroke-linejoin="round" stroke-linecap="round" stroke-width="12" stroke="#1a3175" d="M-18.133,0.455C-18.133,0.455,-4.103,11.139,-4.103,11.139C-4.103,11.139,18.133,-11.139,18.133,-11.139" /></g></g></g></g></g><g id="i17"><g transform="translate(338,409.798)"><g transform="rotate(0)"><animateTransform repeatCount="indefinite" type="rotate" attributeName="transform" dur="0.8s" begin="0s" calcMode="spline" values="0; -20; -51; -80; -80" keyTimes="0; 0.16665; 0.5; 0.83335; 1" keySplines="0.34 0 0.647 0.961; 0.413 0 0.633 1; 0.396 0.052 0.667 1; 0 0 1 1" fill="freeze" /><g transform="scale(1,1) translate(-52.438,-52.438)"><g id="i3" transform="matrix(1,0,0,1,52.438,52.438)"><path fill="#1a3175" fill-rule="evenodd" d="M8.781,-43.438C6.2,-52.188,-6.2,-52.188,-8.781,-43.438C-8.781,-43.438,-9.406,-41.312,-9.406,-41.312C-10.833,-36.464,-15.92,-33.692,-20.768,-35.119C-21.391,-35.302,-21.992,-35.551,-22.562,-35.862C-22.562,-35.862,-24.5,-36.925,-24.5,-36.925C-32.519,-41.287,-41.288,-32.519,-36.919,-24.507C-36.919,-24.507,-35.862,-22.562,-35.862,-22.562C-33.075,-17.437,-35.719,-11.056,-41.313,-9.406C-41.313,-9.406,-43.438,-8.781,-43.438,-8.781C-52.188,-6.2,-52.188,6.2,-43.438,8.782C-43.438,8.782,-41.313,9.407,-41.313,9.407C-36.465,10.834,-33.692,15.921,-35.119,20.768C-35.303,21.391,-35.552,21.992,-35.862,22.562C-35.862,22.562,-36.925,24.5,-36.925,24.5C-41.288,32.519,-32.519,41.288,-24.506,36.919C-24.506,36.919,-22.562,35.863,-22.562,35.863C-18.125,33.445,-12.568,35.081,-10.15,39.518C-9.839,40.089,-9.59,40.689,-9.406,41.312C-9.406,41.312,-8.781,43.438,-8.781,43.438C-6.2,52.188,6.2,52.188,8.781,43.438C8.781,43.438,9.406,41.312,9.406,41.312C10.833,36.464,15.92,33.693,20.768,35.12C21.391,35.303,21.992,35.552,22.562,35.863C22.562,35.863,24.5,36.926,24.5,36.926C32.519,41.288,41.288,32.519,36.919,24.507C36.919,24.507,35.862,22.562,35.862,22.562C33.444,18.125,35.081,12.568,39.518,10.15C40.088,9.839,40.69,9.59,41.313,9.407C41.313,9.407,43.438,8.782,43.438,8.782C52.188,6.2,52.188,-6.199,43.438,-8.781C43.438,-8.781,41.313,-9.406,41.313,-9.406C36.465,-10.833,33.692,-15.921,35.119,-20.768C35.303,-21.391,35.552,-21.992,35.862,-22.562C35.862,-22.562,36.925,-24.5,36.925,-24.5C41.288,-32.518,32.519,-41.287,24.506,-36.918C24.506,-36.918,22.562,-35.862,22.562,-35.862C18.125,-33.444,12.568,-35.081,10.15,-39.518C9.839,-40.089,9.59,-40.689,9.406,-41.312C9.406,-41.312,8.781,-43.438,8.781,-43.438ZM0,18.312C-10.114,18.312,-18.312,10.114,-18.312,0.001C-18.312,-10.113,-10.114,-18.312,0,-18.312C10.11,-18.308,18.303,-10.109,18.299,0.001C18.294,10.105,10.104,18.296,0,18.3C0,18.3,0,18.312,0,18.312Z" /></g></g></g></g></g><g id="i18"><g transform="translate(404,363.798)"><g transform="rotate(0)"><animateTransform repeatCount="indefinite" type="rotate" attributeName="transform" dur="0.8s" begin="0s" calcMode="spline" values="0; 20; 51; 80; 80" keyTimes="0; 0.16665; 0.5; 0.83335; 1" keySplines="0.333 0 0.667 1; 0.333 0 0.728 0.044; 0.333 0 0.667 1; 0 0 1 1" fill="freeze" /><g transform="scale(1,1) translate(-36.781,-36.781)"><g id="i3" transform="matrix(1,0,0,1,36.781,36.781)"><path fill="#cccccc" fill-rule="evenodd" d="M6.147,-30.406C4.34,-36.531,-4.34,-36.531,-6.147,-30.406C-6.147,-30.406,-6.584,-28.919,-6.584,-28.919C-7.583,-25.525,-11.144,-23.584,-14.538,-24.583C-14.974,-24.712,-15.395,-24.886,-15.794,-25.104C-15.794,-25.104,-17.15,-25.847,-17.15,-25.847C-22.763,-28.901,-28.901,-22.763,-25.843,-17.154C-25.843,-17.154,-25.104,-15.794,-25.104,-15.794C-23.152,-12.206,-25.003,-7.739,-28.919,-6.584C-28.919,-6.584,-30.406,-6.147,-30.406,-6.147C-36.531,-4.34,-36.531,4.34,-30.406,6.147C-30.406,6.147,-28.919,6.585,-28.919,6.585C-25.525,7.584,-23.584,11.144,-24.583,14.538C-24.712,14.974,-24.886,15.395,-25.104,15.794C-25.104,15.794,-25.848,17.15,-25.848,17.15C-28.901,22.763,-22.763,28.901,-17.154,25.843C-17.154,25.843,-15.794,25.104,-15.794,25.104C-12.688,23.411,-8.797,24.557,-7.105,27.663C-6.887,28.062,-6.713,28.483,-6.584,28.919C-6.584,28.919,-6.147,30.406,-6.147,30.406C-4.34,36.531,4.34,36.531,6.147,30.406C6.147,30.406,6.584,28.919,6.584,28.919C7.583,25.526,11.144,23.585,14.538,24.584C14.974,24.712,15.395,24.886,15.794,25.104C15.794,25.104,17.15,25.848,17.15,25.848C22.763,28.901,28.901,22.763,25.843,17.155C25.843,17.155,25.104,15.794,25.104,15.794C23.411,12.688,24.557,8.798,27.663,7.105C28.062,6.887,28.483,6.713,28.919,6.585C28.919,6.585,30.406,6.147,30.406,6.147C36.531,4.34,36.531,-4.34,30.406,-6.147C30.406,-6.147,28.919,-6.584,28.919,-6.584C25.525,-7.583,23.584,-11.144,24.583,-14.537C24.712,-14.973,24.886,-15.394,25.104,-15.794C25.104,-15.794,25.848,-17.15,25.848,-17.15C28.901,-22.763,22.763,-28.901,17.154,-25.843C17.154,-25.843,15.794,-25.104,15.794,-25.104C12.688,-23.411,8.797,-24.556,7.105,-27.662C6.887,-28.061,6.713,-28.482,6.584,-28.919C6.584,-28.919,6.147,-30.406,6.147,-30.406ZM0,12.819C-7.08,12.819,-12.819,7.08,-12.819,0C-12.819,-7.079,-7.08,-12.818,0,-12.818C7.077,-12.816,12.812,-7.076,12.809,0.001C12.806,7.074,7.073,12.807,0,12.81C0,12.81,0,12.819,0,12.819Z" /></g></g></g></g></g></svg>