<svg fill="none" height="100%" width="100%" viewBox="0 0 500 500" xmlns:xlink="http://www.w3.org/1999/xlink" xmlns="http://www.w3.org/2000/svg"><defs><linearGradient id="i0" gradientUnits="userSpaceOnUse" spreadMethod="pad" x2="0" y2="-22.964" x1="0.009" y1="23"><stop offset="0%" stop-color="#c5dbf9" /><stop offset="49.9%" stop-color="#d9e8fc" /><stop offset="99.8%" stop-color="#edf5fe" /></linearGradient><linearGradient id="i1" gradientUnits="userSpaceOnUse" spreadMethod="pad" x2="0" y2="3.955" x1="0.027" y1="-3.848"><stop offset="0%" stop-color="#043c96" /><stop offset="50%" stop-color="#043c96" /><stop offset="100%" stop-color="#2c77eb" /></linearGradient><clipPath id="i2"><rect height="500" width="500" y="0" x="0" /></clipPath><linearGradient id="i3" gradientUnits="userSpaceOnUse" spreadMethod="pad" x2="0.357" y2="18" x1="0" y1="-17.5"><stop offset="0%" stop-color="#f3f9ff" /><stop offset="50%" stop-color="#dceafc" /><stop offset="100%" stop-color="#c5dbf9" /></linearGradient><linearGradient id="i4" gradientUnits="userSpaceOnUse" spreadMethod="pad" x2="0" y2="10.214" x1="0" y1="-10.071"><stop offset="0%" stop-color="#043c96" /><stop offset="50%" stop-color="#043c96" /><stop offset="100%" stop-color="#043c96" /></linearGradient><linearGradient id="i5" gradientUnits="userSpaceOnUse" spreadMethod="pad" x2="0.25" y2="6.536" x1="0" y1="-6.536"><stop offset="0%" stop-color="#f3f9ff" /><stop offset="50%" stop-color="#dceafc" /><stop offset="100%" stop-color="#c5dbf9" /></linearGradient><g id="i6"><g transform="matrix(0,-3.15,3.15,0,196.442,302.906)" id="i7"><g id="i8" transform="matrix(1,0,0,1,32.594,18.18)"><path fill="url(#i3)" fill-rule="evenodd" d="M-25.684,-17.93C-29.356,-17.93,-32.344,-14.943,-32.344,-11.271C-32.344,-11.271,-32.344,11.271,-32.344,11.271C-32.344,14.943,-29.356,17.93,-25.684,17.93C-25.684,17.93,25.686,17.93,25.686,17.93C29.358,17.93,32.345,14.943,32.345,11.271C32.345,11.271,32.345,-11.271,32.345,-11.271C32.345,-14.943,29.358,-17.93,25.686,-17.93C25.686,-17.93,-25.684,-17.93,-25.684,-17.93Z" /></g><g id="i9" transform="matrix(1,0,0,1,32.595,18.18)"><path fill="#deeaf9" d="M25.069,16C25.069,16,-25.069,16,-25.069,16C-27.83,16,-30.069,13.761,-30.069,11C-30.069,11,-30.069,-11,-30.069,-11C-30.069,-13.761,-27.83,-16,-25.069,-16C-25.069,-16,25.069,-16,25.069,-16C27.83,-16,30.069,-13.761,30.069,-11C30.069,-11,30.069,11,30.069,11C30.069,13.761,27.83,16,25.069,16Z" /></g></g><g transform="matrix(0,-3.15,3.15,0,220.335,233.608)" id="i10"><g id="i8" transform="matrix(1,0,0,1,10.595,10.595)"><path fill="url(#i4)" fill-rule="evenodd" d="M-10.345,0C-10.345,5.713,-5.713,10.345,0,10.345C5.713,10.345,10.345,5.713,10.345,0C10.345,-5.713,5.713,-10.345,0,-10.345C-5.713,-10.345,-10.345,-5.713,-10.345,0Z" /></g><g id="i9" transform="matrix(1,0,0,1,10.595,10.595)"><path fill="#3d89f0" d="M8.728,0C8.728,4.82,4.82,8.728,0,8.728C-4.821,8.728,-8.728,4.82,-8.728,0C-8.728,-4.82,-4.821,-8.728,0,-8.728C4.82,-8.728,8.728,-4.82,8.728,0Z" /></g></g><g transform="matrix(0,-3.15,3.15,0,231.999,213.489)" id="i11"><g id="i9" transform="matrix(1,0,0,1,4.208,6.892)"><path fill="url(#i5)" d="M-1,-5.56C-1,-5.56,-1,-5.151,-1,-5.151C-2.857,-4.795,-3.531,-3.472,-3.531,-2.299C-3.531,-0.119,-1.638,0.507,-0.255,0.964C0.828,1.321,1.492,1.568,1.492,2.106C1.492,2.375,1.492,2.937,0.069,2.937C-0.625,2.937,-1.262,2.636,-1.881,2.019C-2.041,1.858,-2.31,1.589,-2.794,1.589C-3.436,1.589,-3.958,2.117,-3.958,2.767C-3.958,2.982,-3.896,3.2,-3.783,3.38C-3.242,4.256,-2.198,4.918,-1,5.16C-1,5.16,-1,5.56,-1,5.56C-1,6.157,-0.52,6.642,0.069,6.642C0.665,6.642,1.15,6.157,1.15,5.56C1.15,5.56,1.15,5.171,1.15,5.171C2.941,4.872,3.958,3.771,3.958,2.106C3.958,-0.205,1.988,-0.852,0.549,-1.326C-0.455,-1.656,-1.065,-1.886,-1.065,-2.299C-1.065,-2.887,-0.273,-2.95,0.069,-2.95C0.804,-2.95,1.39,-2.637,1.699,-2.338C2.001,-2.056,2.292,-1.918,2.588,-1.918C3.238,-1.918,3.766,-2.441,3.766,-3.083C3.766,-3.322,3.693,-3.558,3.548,-3.775C3.074,-4.443,2.213,-4.928,1.15,-5.134C1.15,-5.134,1.15,-5.56,1.15,-5.56C1.15,-6.157,0.665,-6.642,0.069,-6.642C-0.52,-6.642,-1,-6.157,-1,-5.56Z" /></g></g></g><linearGradient id="i12" gradientUnits="userSpaceOnUse" spreadMethod="pad" x2="0.357" y2="18" x1="0" y1="-17.5"><stop offset="0%" stop-color="#f3f9ff" /><stop offset="50%" stop-color="#dceafc" /><stop offset="100%" stop-color="#c5dbf9" /></linearGradient><linearGradient id="i13" gradientUnits="userSpaceOnUse" spreadMethod="pad" x2="0" y2="10.214" x1="0" y1="-10.071"><stop offset="0%" stop-color="#043c96" /><stop offset="50%" stop-color="#043c96" /><stop offset="100%" stop-color="#043c96" /></linearGradient><linearGradient id="i14" gradientUnits="userSpaceOnUse" spreadMethod="pad" x2="0.25" y2="6.536" x1="0" y1="-6.536"><stop offset="0%" stop-color="#f3f9ff" /><stop offset="50%" stop-color="#dceafc" /><stop offset="100%" stop-color="#c5dbf9" /></linearGradient><g id="i15"><g transform="matrix(0,-3.15,3.15,0,196.442,302.906)" visibility="hidden" id="i7"><animate repeatCount="indefinite" begin="0s" calcMode="discrete" dur="3.226s" values="hidden; visible; visible" keyTimes="0; 0.517031; 1" attributeName="visibility" /><g id="i8" transform="matrix(1,0,0,1,32.594,18.18)"><path fill="url(#i12)" fill-rule="evenodd" d="M-25.684,-17.93C-29.356,-17.93,-32.344,-14.943,-32.344,-11.271C-32.344,-11.271,-32.344,11.271,-32.344,11.271C-32.344,14.943,-29.356,17.93,-25.684,17.93C-25.684,17.93,25.686,17.93,25.686,17.93C29.358,17.93,32.345,14.943,32.345,11.271C32.345,11.271,32.345,-11.271,32.345,-11.271C32.345,-14.943,29.358,-17.93,25.686,-17.93C25.686,-17.93,-25.684,-17.93,-25.684,-17.93Z" /></g><g id="i9" transform="matrix(1,0,0,1,32.595,18.18)"><path fill="#deeaf9" d="M25.069,16C25.069,16,-25.069,16,-25.069,16C-27.83,16,-30.069,13.761,-30.069,11C-30.069,11,-30.069,-11,-30.069,-11C-30.069,-13.761,-27.83,-16,-25.069,-16C-25.069,-16,25.069,-16,25.069,-16C27.83,-16,30.069,-13.761,30.069,-11C30.069,-11,30.069,11,30.069,11C30.069,13.761,27.83,16,25.069,16Z" /></g></g><g transform="matrix(0,-3.15,3.15,0,220.335,233.608)" visibility="hidden" id="i10"><animate repeatCount="indefinite" begin="0s" calcMode="discrete" dur="3.226s" values="hidden; visible; visible" keyTimes="0; 0.517031; 1" attributeName="visibility" /><g id="i8" transform="matrix(1,0,0,1,10.595,10.595)"><path fill="url(#i13)" fill-rule="evenodd" d="M-10.345,0C-10.345,5.713,-5.713,10.345,0,10.345C5.713,10.345,10.345,5.713,10.345,0C10.345,-5.713,5.713,-10.345,0,-10.345C-5.713,-10.345,-10.345,-5.713,-10.345,0Z" /></g><g id="i9" transform="matrix(1,0,0,1,10.595,10.595)"><path fill="#3d89f0" d="M8.728,0C8.728,4.82,4.82,8.728,0,8.728C-4.821,8.728,-8.728,4.82,-8.728,0C-8.728,-4.82,-4.821,-8.728,0,-8.728C4.82,-8.728,8.728,-4.82,8.728,0Z" /></g></g><g transform="matrix(0,-3.15,3.15,0,231.999,213.489)" visibility="hidden" id="i11"><animate repeatCount="indefinite" begin="0s" calcMode="discrete" dur="3.226s" values="hidden; visible; visible" keyTimes="0; 0.517031; 1" attributeName="visibility" /><g id="i9" transform="matrix(1,0,0,1,4.208,6.892)"><path fill="url(#i14)" d="M-1,-5.56C-1,-5.56,-1,-5.151,-1,-5.151C-2.857,-4.795,-3.531,-3.472,-3.531,-2.299C-3.531,-0.119,-1.638,0.507,-0.255,0.964C0.828,1.321,1.492,1.568,1.492,2.106C1.492,2.375,1.492,2.937,0.069,2.937C-0.625,2.937,-1.262,2.636,-1.881,2.019C-2.041,1.858,-2.31,1.589,-2.794,1.589C-3.436,1.589,-3.958,2.117,-3.958,2.767C-3.958,2.982,-3.896,3.2,-3.783,3.38C-3.242,4.256,-2.198,4.918,-1,5.16C-1,5.16,-1,5.56,-1,5.56C-1,6.157,-0.52,6.642,0.069,6.642C0.665,6.642,1.15,6.157,1.15,5.56C1.15,5.56,1.15,5.171,1.15,5.171C2.941,4.872,3.958,3.771,3.958,2.106C3.958,-0.205,1.988,-0.852,0.549,-1.326C-0.455,-1.656,-1.065,-1.886,-1.065,-2.299C-1.065,-2.887,-0.273,-2.95,0.069,-2.95C0.804,-2.95,1.39,-2.637,1.699,-2.338C2.001,-2.056,2.292,-1.918,2.588,-1.918C3.238,-1.918,3.766,-2.441,3.766,-3.083C3.766,-3.322,3.693,-3.558,3.548,-3.775C3.074,-4.443,2.213,-4.928,1.15,-5.134C1.15,-5.134,1.15,-5.56,1.15,-5.56C1.15,-6.157,0.665,-6.642,0.069,-6.642C-0.52,-6.642,-1,-6.157,-1,-5.56Z" /></g></g></g><linearGradient id="i16" gradientUnits="userSpaceOnUse" spreadMethod="pad" x2="0.357" y2="18" x1="0" y1="-17.5"><stop offset="0%" stop-color="#f3f9ff" /><stop offset="50%" stop-color="#dceafc" /><stop offset="100%" stop-color="#c5dbf9" /></linearGradient><linearGradient id="i17" gradientUnits="userSpaceOnUse" spreadMethod="pad" x2="0" y2="10.214" x1="0" y1="-10.071"><stop offset="0%" stop-color="#043c96" /><stop offset="50%" stop-color="#043c96" /><stop offset="100%" stop-color="#043c96" /></linearGradient><linearGradient id="i18" gradientUnits="userSpaceOnUse" spreadMethod="pad" x2="0.25" y2="6.536" x1="0" y1="-6.536"><stop offset="0%" stop-color="#f3f9ff" /><stop offset="50%" stop-color="#dceafc" /><stop offset="100%" stop-color="#c5dbf9" /></linearGradient><g id="i19"><g transform="matrix(0,-3.15,3.15,0,196.442,302.906)" visibility="hidden" id="i7"><animate repeatCount="indefinite" begin="0s" calcMode="discrete" dur="3.226s" values="hidden; visible; visible" keyTimes="0; 0.310019; 1" attributeName="visibility" /><g id="i8" transform="matrix(1,0,0,1,32.594,18.18)"><path fill="url(#i16)" fill-rule="evenodd" d="M-25.684,-17.93C-29.356,-17.93,-32.344,-14.943,-32.344,-11.271C-32.344,-11.271,-32.344,11.271,-32.344,11.271C-32.344,14.943,-29.356,17.93,-25.684,17.93C-25.684,17.93,25.686,17.93,25.686,17.93C29.358,17.93,32.345,14.943,32.345,11.271C32.345,11.271,32.345,-11.271,32.345,-11.271C32.345,-14.943,29.358,-17.93,25.686,-17.93C25.686,-17.93,-25.684,-17.93,-25.684,-17.93Z" /></g><g id="i9" transform="matrix(1,0,0,1,32.595,18.18)"><path fill="#deeaf9" d="M25.069,16C25.069,16,-25.069,16,-25.069,16C-27.83,16,-30.069,13.761,-30.069,11C-30.069,11,-30.069,-11,-30.069,-11C-30.069,-13.761,-27.83,-16,-25.069,-16C-25.069,-16,25.069,-16,25.069,-16C27.83,-16,30.069,-13.761,30.069,-11C30.069,-11,30.069,11,30.069,11C30.069,13.761,27.83,16,25.069,16Z" /></g></g><g transform="matrix(0,-3.15,3.15,0,220.335,233.608)" visibility="hidden" id="i10"><animate repeatCount="indefinite" begin="0s" calcMode="discrete" dur="3.226s" values="hidden; visible; visible" keyTimes="0; 0.310019; 1" attributeName="visibility" /><g id="i8" transform="matrix(1,0,0,1,10.595,10.595)"><path fill="url(#i17)" fill-rule="evenodd" d="M-10.345,0C-10.345,5.713,-5.713,10.345,0,10.345C5.713,10.345,10.345,5.713,10.345,0C10.345,-5.713,5.713,-10.345,0,-10.345C-5.713,-10.345,-10.345,-5.713,-10.345,0Z" /></g><g id="i9" transform="matrix(1,0,0,1,10.595,10.595)"><path fill="#3d89f0" d="M8.728,0C8.728,4.82,4.82,8.728,0,8.728C-4.821,8.728,-8.728,4.82,-8.728,0C-8.728,-4.82,-4.821,-8.728,0,-8.728C4.82,-8.728,8.728,-4.82,8.728,0Z" /></g></g><g transform="matrix(0,-3.15,3.15,0,231.999,213.489)" visibility="hidden" id="i11"><animate repeatCount="indefinite" begin="0s" calcMode="discrete" dur="3.226s" values="hidden; visible; visible" keyTimes="0; 0.310019; 1" attributeName="visibility" /><g id="i9" transform="matrix(1,0,0,1,4.208,6.892)"><path fill="url(#i18)" d="M-1,-5.56C-1,-5.56,-1,-5.151,-1,-5.151C-2.857,-4.795,-3.531,-3.472,-3.531,-2.299C-3.531,-0.119,-1.638,0.507,-0.255,0.964C0.828,1.321,1.492,1.568,1.492,2.106C1.492,2.375,1.492,2.937,0.069,2.937C-0.625,2.937,-1.262,2.636,-1.881,2.019C-2.041,1.858,-2.31,1.589,-2.794,1.589C-3.436,1.589,-3.958,2.117,-3.958,2.767C-3.958,2.982,-3.896,3.2,-3.783,3.38C-3.242,4.256,-2.198,4.918,-1,5.16C-1,5.16,-1,5.56,-1,5.56C-1,6.157,-0.52,6.642,0.069,6.642C0.665,6.642,1.15,6.157,1.15,5.56C1.15,5.56,1.15,5.171,1.15,5.171C2.941,4.872,3.958,3.771,3.958,2.106C3.958,-0.205,1.988,-0.852,0.549,-1.326C-0.455,-1.656,-1.065,-1.886,-1.065,-2.299C-1.065,-2.887,-0.273,-2.95,0.069,-2.95C0.804,-2.95,1.39,-2.637,1.699,-2.338C2.001,-2.056,2.292,-1.918,2.588,-1.918C3.238,-1.918,3.766,-2.441,3.766,-3.083C3.766,-3.322,3.693,-3.558,3.548,-3.775C3.074,-4.443,2.213,-4.928,1.15,-5.134C1.15,-5.134,1.15,-5.56,1.15,-5.56C1.15,-6.157,0.665,-6.642,0.069,-6.642C-0.52,-6.642,-1,-6.157,-1,-5.56Z" /></g></g></g><linearGradient id="i20" gradientUnits="userSpaceOnUse" spreadMethod="pad" x2="0.036" y2="-3.714" x1="0.036" y1="6.041"><stop offset="0%" stop-color="#043c96" /><stop offset="50%" stop-color="#3984ef" /><stop offset="100%" stop-color="#043c96" /></linearGradient><filter id="i21"><feComponentTransfer in="SourceGraphic"><feFuncA tableValues="1 0" type="table" /></feComponentTransfer></filter><mask height="20000" width="20000" y="-10000" x="-10000" maskContentUnits="userSpaceOnUse" maskUnits="userSpaceOnUse" style="mask-type: alpha" mask-type="alpha" id="i22"><g filter="url(#i21)"><rect opacity="0" fill="#ffffff" height="500" width="500" y="0" x="0" /><g transform="matrix(1,0,0,1,250,-140)"><g id="i23"><rect height="500" width="500" y="-250" x="-250" stroke-width="0" stroke="#342510" fill="#808080" /></g></g></g></mask><filter id="i24"><feComponentTransfer in="SourceGraphic"><feFuncA tableValues="1 0" type="table" /></feComponentTransfer></filter><mask height="20000" width="20000" y="-10000" x="-10000" maskContentUnits="userSpaceOnUse" maskUnits="userSpaceOnUse" style="mask-type: alpha" mask-type="alpha" id="i25"><g filter="url(#i24)"><rect opacity="0" fill="#ffffff" height="500" width="500" y="0" x="0" /><g transform="matrix(1,0,0,1,250,-140)"><g id="i23"><rect height="500" width="500" y="-250" x="-250" stroke-width="0" stroke="#342510" fill="#808080" /></g></g></g></mask></defs><g transform="matrix(1,0,0,1,234,250)" visibility="visible" id="i26"><animate repeatCount="indefinite" begin="0s" calcMode="discrete" dur="3.226s" values="visible; hidden; hidden" keyTimes="0; 0.99306; 1" attributeName="visibility" /></g><g visibility="visible" id="i27"><animate repeatCount="indefinite" begin="0s" calcMode="discrete" dur="3.226s" values="visible; hidden; hidden" keyTimes="0; 0.99306; 1" attributeName="visibility" /><g transform="translate(252.418,180)"><g transform="scale(3,3)"><animateTransform repeatCount="indefinite" type="scale" attributeName="transform" dur="3.226s" begin="0s" calcMode="spline" values="3 3; 3.5 3.5; 3 3; 3 3; 3.5 3.5; 3 3; 3 3" keyTimes="0; 0.237905; 0.465465; 0.517174; 0.755078; 0.982639; 1" keySplines="0.2 0 0.2 1; 0 0 1 1; 0.167 0 0.833 1; 0.2 0 0.2 1; 0 0 1 1; 0 0 1 1" fill="freeze" /><g transform="translate(-35.25,-35.25)"><g id="i9" transform="matrix(1,0,0,1,35.25,35.25)"><path fill="#043c96" d="M35,0C35,19.33,19.33,35,0,35C-19.33,35,-35,19.33,-35,0C-35,-19.33,-19.33,-35,0,-35C19.33,-35,35,-19.33,35,0Z" /></g></g></g></g></g><g visibility="visible" id="i28"><animate repeatCount="indefinite" begin="0s" calcMode="discrete" dur="3.226s" values="visible; hidden; hidden" keyTimes="0; 0.99306; 1" attributeName="visibility" /><g transform="translate(246.291,727.923)"><animateTransform repeatCount="indefinite" type="translate" attributeName="transform" dur="3.226s" begin="0s" calcMode="spline" values="246.291 727.923; 246.291 287.923; 246.291 287.923; 246.291 727.923; 246.291 727.923; 246.291 287.923; 246.291 287.923; 246.291 727.923; 246.291 727.923" keyTimes="0; 0.206874; 0.258592; 0.465465; 0.517174; 0.724047; 0.775765; 0.982639; 1" keySplines="0.2 0 0.2 1; 0 0 1 1; 0.2 0 0.2 1; 0 0 1 1; 0.2 0 0.2 1; 0 0 1 1; 0.2 0 0.2 1; 0 0 1 1" fill="freeze" /><g transform="scale(3.5,3.5) translate(-19.548,-23.271)"><g id="i9" transform="matrix(1,0,0,1,19.548,23.271)"><path fill="url(#i0)" fill-rule="evenodd" d="M-10.701,-19.159C-10.701,-19.159,-10.701,-8.804,-10.701,-8.804C-11.386,-10.538,-12.896,-11.887,-14.798,-11.955C-16.701,-12.021,-19.298,-9.901,-19.298,-6.979C-19.298,-6.979,-19.298,10.263,-19.298,10.263C-19.298,12.928,-18.33,15.502,-16.576,17.509C-16.576,17.509,-13.049,22.679,-13.049,22.679C-12.859,22.897,-12.585,23.021,-12.296,23.021C-12.296,23.021,13.701,23.021,13.701,23.021C14.255,23.021,14.703,22.574,14.703,22.021C14.703,22.021,14.703,15.506,14.703,15.506C17.217,13.429,19.298,10.294,19.298,7.021C19.298,7.021,19.298,5.979,19.298,5.979C19.298,5.979,19.298,5.021,19.298,5.021C19.298,5.021,19.298,2.978,19.298,2.978C19.298,2.978,19.298,-7.022,19.298,-7.022C19.298,-7.022,19.298,-9.159,19.298,-9.159C19.298,-11.292,17.57,-13.021,15.437,-13.021C14.236,-13.021,13.179,-12.463,12.471,-11.606C12.471,-11.606,12.471,-16.16,12.471,-16.16C12.471,-18.293,10.742,-20.021,8.609,-20.021C6.476,-20.021,4.745,-18.293,4.745,-16.16C4.745,-16.16,4.745,-17.159,4.745,-17.159C4.745,-19.292,3.017,-21.021,0.883,-21.021C-1.248,-21.021,-2.977,-19.292,-2.977,-17.159C-2.977,-17.159,-2.977,-19.159,-2.977,-19.159C-2.977,-21.292,-4.706,-23.021,-6.839,-23.021C-8.973,-23.021,-10.701,-21.292,-10.701,-19.159Z" /></g></g></g></g><g transform="matrix(3.5,0,0,3.5,110.109,69.176)" visibility="visible" id="i29"><animate repeatCount="indefinite" begin="0s" calcMode="discrete" dur="3.226s" values="visible; hidden; hidden" keyTimes="0; 0.99306; 1" attributeName="visibility" /><g id="i9" transform="matrix(1,0,0,1,40.797,10.997)"><path fill="#c5dbf9" d="M35.548,10.747C35.548,10.747,-35.548,10.747,-35.548,10.747C-38.309,10.747,-40.548,8.509,-40.548,5.747C-40.548,5.747,-40.548,-5.747,-40.548,-5.747C-40.548,-8.509,-38.309,-10.747,-35.548,-10.747C-35.548,-10.747,35.548,-10.747,35.548,-10.747C38.308,-10.747,40.548,-8.509,40.548,-5.747C40.548,-5.747,40.548,5.747,40.548,5.747C40.548,8.509,38.308,10.747,35.548,10.747Z" /></g></g><g transform="matrix(3.5,0,0,3.5,153.71,96.537)" visibility="visible" id="i30"><animate repeatCount="indefinite" begin="0s" calcMode="discrete" dur="3.226s" values="visible; hidden; hidden" keyTimes="0; 0.99306; 1" attributeName="visibility" /><g id="i9" transform="matrix(1,0,0,1,28.34,4.158)"><path fill="url(#i1)" d="M28.09,-3.908C28.09,-3.908,28.09,3.908,28.09,3.908C28.09,3.908,-28.09,3.908,-28.09,3.908C-28.09,3.908,-28.09,-3.908,-28.09,-3.908C-28.09,-3.908,28.09,-3.908,28.09,-3.908Z" /></g></g><g mask="url(#i22)" visibility="visible" id="i31"><animate repeatCount="indefinite" begin="0s" calcMode="discrete" dur="3.226s" values="visible; hidden; hidden" keyTimes="0; 0.259016; 1" attributeName="visibility" /><g transform="translate(250,50)"><animateTransform repeatCount="indefinite" type="translate" attributeName="transform" dur="3.226s" begin="0s" calcMode="spline" values="250 50; 250 250; 250 250" keyTimes="0; 0.206874; 1" keySplines="0.2 0 0.2 1; 0 0 1 1" fill="freeze" /><g transform="translate(-250,-250)"><g clip-path="url(#i2)"><g transform="matrix(0,-3.15,3.15,0,196.442,302.906)"><g transform="matrix(1,0,0,1,32.594,18.18)"><path fill="url(#i3)" fill-rule="evenodd" d="M-25.684,-17.93C-29.356,-17.93,-32.344,-14.943,-32.344,-11.271C-32.344,-11.271,-32.344,11.271,-32.344,11.271C-32.344,14.943,-29.356,17.93,-25.684,17.93C-25.684,17.93,25.686,17.93,25.686,17.93C29.358,17.93,32.345,14.943,32.345,11.271C32.345,11.271,32.345,-11.271,32.345,-11.271C32.345,-14.943,29.358,-17.93,25.686,-17.93C25.686,-17.93,-25.684,-17.93,-25.684,-17.93Z" /></g><g transform="matrix(1,0,0,1,32.595,18.18)"><path fill="#deeaf9" d="M25.069,16C25.069,16,-25.069,16,-25.069,16C-27.83,16,-30.069,13.761,-30.069,11C-30.069,11,-30.069,-11,-30.069,-11C-30.069,-13.761,-27.83,-16,-25.069,-16C-25.069,-16,25.069,-16,25.069,-16C27.83,-16,30.069,-13.761,30.069,-11C30.069,-11,30.069,11,30.069,11C30.069,13.761,27.83,16,25.069,16Z" /></g></g><g transform="matrix(0,-3.15,3.15,0,220.335,233.608)"><g transform="matrix(1,0,0,1,10.595,10.595)"><path fill="url(#i4)" fill-rule="evenodd" d="M-10.345,0C-10.345,5.713,-5.713,10.345,0,10.345C5.713,10.345,10.345,5.713,10.345,0C10.345,-5.713,5.713,-10.345,0,-10.345C-5.713,-10.345,-10.345,-5.713,-10.345,0Z" /></g><g transform="matrix(1,0,0,1,10.595,10.595)"><path fill="#3d89f0" d="M8.728,0C8.728,4.82,4.82,8.728,0,8.728C-4.821,8.728,-8.728,4.82,-8.728,0C-8.728,-4.82,-4.821,-8.728,0,-8.728C4.82,-8.728,8.728,-4.82,8.728,0Z" /></g></g><g transform="matrix(0,-3.15,3.15,0,231.999,213.489)"><g transform="matrix(1,0,0,1,4.208,6.892)"><path fill="url(#i5)" d="M-1,-5.56C-1,-5.56,-1,-5.151,-1,-5.151C-2.857,-4.795,-3.531,-3.472,-3.531,-2.299C-3.531,-0.119,-1.638,0.507,-0.255,0.964C0.828,1.321,1.492,1.568,1.492,2.106C1.492,2.375,1.492,2.937,0.069,2.937C-0.625,2.937,-1.262,2.636,-1.881,2.019C-2.041,1.858,-2.31,1.589,-2.794,1.589C-3.436,1.589,-3.958,2.117,-3.958,2.767C-3.958,2.982,-3.896,3.2,-3.783,3.38C-3.242,4.256,-2.198,4.918,-1,5.16C-1,5.16,-1,5.56,-1,5.56C-1,6.157,-0.52,6.642,0.069,6.642C0.665,6.642,1.15,6.157,1.15,5.56C1.15,5.56,1.15,5.171,1.15,5.171C2.941,4.872,3.958,3.771,3.958,2.106C3.958,-0.205,1.988,-0.852,0.549,-1.326C-0.455,-1.656,-1.065,-1.886,-1.065,-2.299C-1.065,-2.887,-0.273,-2.95,0.069,-2.95C0.804,-2.95,1.39,-2.637,1.699,-2.338C2.001,-2.056,2.292,-1.918,2.588,-1.918C3.238,-1.918,3.766,-2.441,3.766,-3.083C3.766,-3.322,3.693,-3.558,3.548,-3.775C3.074,-4.443,2.213,-4.928,1.15,-5.134C1.15,-5.134,1.15,-5.56,1.15,-5.56C1.15,-6.157,0.665,-6.642,0.069,-6.642C-0.52,-6.642,-1,-6.157,-1,-5.56Z" /></g></g></g></g></g></g><g display="none" transform="matrix(1,0,0,1,250,-140)" visibility="visible" id="i32"><animate repeatCount="indefinite" begin="0s" calcMode="discrete" dur="3.226s" values="visible; hidden; hidden" keyTimes="0; 0.259016; 1" attributeName="visibility" /><g id="i23"><rect height="500" width="500" y="-250" x="-250" stroke-width="0" stroke="#342510" fill="#808080" /></g></g><g mask="url(#i25)" visibility="hidden" id="i31"><animate repeatCount="indefinite" begin="0s" calcMode="discrete" dur="3.226s" values="hidden; visible; hidden; hidden" keyTimes="0; 0.517031; 0.776047; 1" attributeName="visibility" /><g transform="translate(250,50)"><animateTransform repeatCount="indefinite" type="translate" attributeName="transform" dur="3.226s" begin="0s" calcMode="spline" values="250 50; 250 50; 250 250; 250 250" keyTimes="0; 0.517184; 0.724057; 1" keySplines="0 0 1 1; 0.2 0 0.2 1; 0 0 1 1" fill="freeze" /><g transform="translate(-250,-250)"><g clip-path="url(#i2)"><g transform="matrix(0,-3.15,3.15,0,196.442,302.906)" visibility="hidden"><animate repeatCount="indefinite" begin="0s" calcMode="discrete" dur="3.226s" values="hidden; visible; visible" keyTimes="0; 0.517031; 1" attributeName="visibility" /><g transform="matrix(1,0,0,1,32.594,18.18)"><path fill="url(#i12)" fill-rule="evenodd" d="M-25.684,-17.93C-29.356,-17.93,-32.344,-14.943,-32.344,-11.271C-32.344,-11.271,-32.344,11.271,-32.344,11.271C-32.344,14.943,-29.356,17.93,-25.684,17.93C-25.684,17.93,25.686,17.93,25.686,17.93C29.358,17.93,32.345,14.943,32.345,11.271C32.345,11.271,32.345,-11.271,32.345,-11.271C32.345,-14.943,29.358,-17.93,25.686,-17.93C25.686,-17.93,-25.684,-17.93,-25.684,-17.93Z" /></g><g transform="matrix(1,0,0,1,32.595,18.18)"><path fill="#deeaf9" d="M25.069,16C25.069,16,-25.069,16,-25.069,16C-27.83,16,-30.069,13.761,-30.069,11C-30.069,11,-30.069,-11,-30.069,-11C-30.069,-13.761,-27.83,-16,-25.069,-16C-25.069,-16,25.069,-16,25.069,-16C27.83,-16,30.069,-13.761,30.069,-11C30.069,-11,30.069,11,30.069,11C30.069,13.761,27.83,16,25.069,16Z" /></g></g><g transform="matrix(0,-3.15,3.15,0,220.335,233.608)" visibility="hidden"><animate repeatCount="indefinite" begin="0s" calcMode="discrete" dur="3.226s" values="hidden; visible; visible" keyTimes="0; 0.517031; 1" attributeName="visibility" /><g transform="matrix(1,0,0,1,10.595,10.595)"><path fill="url(#i13)" fill-rule="evenodd" d="M-10.345,0C-10.345,5.713,-5.713,10.345,0,10.345C5.713,10.345,10.345,5.713,10.345,0C10.345,-5.713,5.713,-10.345,0,-10.345C-5.713,-10.345,-10.345,-5.713,-10.345,0Z" /></g><g transform="matrix(1,0,0,1,10.595,10.595)"><path fill="#3d89f0" d="M8.728,0C8.728,4.82,4.82,8.728,0,8.728C-4.821,8.728,-8.728,4.82,-8.728,0C-8.728,-4.82,-4.821,-8.728,0,-8.728C4.82,-8.728,8.728,-4.82,8.728,0Z" /></g></g><g transform="matrix(0,-3.15,3.15,0,231.999,213.489)" visibility="hidden"><animate repeatCount="indefinite" begin="0s" calcMode="discrete" dur="3.226s" values="hidden; visible; visible" keyTimes="0; 0.517031; 1" attributeName="visibility" /><g transform="matrix(1,0,0,1,4.208,6.892)"><path fill="url(#i14)" d="M-1,-5.56C-1,-5.56,-1,-5.151,-1,-5.151C-2.857,-4.795,-3.531,-3.472,-3.531,-2.299C-3.531,-0.119,-1.638,0.507,-0.255,0.964C0.828,1.321,1.492,1.568,1.492,2.106C1.492,2.375,1.492,2.937,0.069,2.937C-0.625,2.937,-1.262,2.636,-1.881,2.019C-2.041,1.858,-2.31,1.589,-2.794,1.589C-3.436,1.589,-3.958,2.117,-3.958,2.767C-3.958,2.982,-3.896,3.2,-3.783,3.38C-3.242,4.256,-2.198,4.918,-1,5.16C-1,5.16,-1,5.56,-1,5.56C-1,6.157,-0.52,6.642,0.069,6.642C0.665,6.642,1.15,6.157,1.15,5.56C1.15,5.56,1.15,5.171,1.15,5.171C2.941,4.872,3.958,3.771,3.958,2.106C3.958,-0.205,1.988,-0.852,0.549,-1.326C-0.455,-1.656,-1.065,-1.886,-1.065,-2.299C-1.065,-2.887,-0.273,-2.95,0.069,-2.95C0.804,-2.95,1.39,-2.637,1.699,-2.338C2.001,-2.056,2.292,-1.918,2.588,-1.918C3.238,-1.918,3.766,-2.441,3.766,-3.083C3.766,-3.322,3.693,-3.558,3.548,-3.775C3.074,-4.443,2.213,-4.928,1.15,-5.134C1.15,-5.134,1.15,-5.56,1.15,-5.56C1.15,-6.157,0.665,-6.642,0.069,-6.642C-0.52,-6.642,-1,-6.157,-1,-5.56Z" /></g></g></g></g></g></g><g display="none" transform="matrix(1,0,0,1,250,-140)" visibility="hidden" id="i33"><animate repeatCount="indefinite" begin="0s" calcMode="discrete" dur="3.226s" values="hidden; visible; hidden; hidden" keyTimes="0; 0.517031; 0.776047; 1" attributeName="visibility" /><g id="i23"><rect height="500" width="500" y="-250" x="-250" stroke-width="0" stroke="#342510" fill="#808080" /></g></g><g id="i28"><g transform="translate(246.291,727.923)"><animateTransform repeatCount="indefinite" type="translate" attributeName="transform" dur="3.226s" begin="0s" calcMode="spline" values="246.291 727.923; 246.291 287.923; 246.291 287.923; 246.291 727.923; 246.291 727.923; 246.291 287.923; 246.291 287.923; 246.291 727.923; 246.291 727.923" keyTimes="0; 0.206874; 0.258592; 0.465465; 0.517174; 0.724047; 0.775765; 0.982639; 1" keySplines="0.2 0 0.2 1; 0 0 1 1; 0.2 0 0.2 1; 0 0 1 1; 0.2 0 0.2 1; 0 0 1 1; 0.2 0 0.2 1; 0 0 1 1" fill="freeze" /><g transform="scale(3.5,3.5) translate(-19.548,-23.271)"><g transform="matrix(0.286,0,0,0.286,-50.821,-58.992)" visibility="hidden" id="i31"><animate repeatCount="indefinite" begin="0s" calcMode="discrete" dur="3.226s" values="hidden; visible; hidden; hidden" keyTimes="0; 0.259016; 0.465028; 1" attributeName="visibility" /><g clip-path="url(#i2)"><g transform="matrix(0,-3.15,3.15,0,196.442,302.906)"><g transform="matrix(1,0,0,1,32.594,18.18)"><path fill="url(#i3)" fill-rule="evenodd" d="M-25.684,-17.93C-29.356,-17.93,-32.344,-14.943,-32.344,-11.271C-32.344,-11.271,-32.344,11.271,-32.344,11.271C-32.344,14.943,-29.356,17.93,-25.684,17.93C-25.684,17.93,25.686,17.93,25.686,17.93C29.358,17.93,32.345,14.943,32.345,11.271C32.345,11.271,32.345,-11.271,32.345,-11.271C32.345,-14.943,29.358,-17.93,25.686,-17.93C25.686,-17.93,-25.684,-17.93,-25.684,-17.93Z" /></g><g transform="matrix(1,0,0,1,32.595,18.18)"><path fill="#deeaf9" d="M25.069,16C25.069,16,-25.069,16,-25.069,16C-27.83,16,-30.069,13.761,-30.069,11C-30.069,11,-30.069,-11,-30.069,-11C-30.069,-13.761,-27.83,-16,-25.069,-16C-25.069,-16,25.069,-16,25.069,-16C27.83,-16,30.069,-13.761,30.069,-11C30.069,-11,30.069,11,30.069,11C30.069,13.761,27.83,16,25.069,16Z" /></g></g><g transform="matrix(0,-3.15,3.15,0,220.335,233.608)"><g transform="matrix(1,0,0,1,10.595,10.595)"><path fill="url(#i4)" fill-rule="evenodd" d="M-10.345,0C-10.345,5.713,-5.713,10.345,0,10.345C5.713,10.345,10.345,5.713,10.345,0C10.345,-5.713,5.713,-10.345,0,-10.345C-5.713,-10.345,-10.345,-5.713,-10.345,0Z" /></g><g transform="matrix(1,0,0,1,10.595,10.595)"><path fill="#3d89f0" d="M8.728,0C8.728,4.82,4.82,8.728,0,8.728C-4.821,8.728,-8.728,4.82,-8.728,0C-8.728,-4.82,-4.821,-8.728,0,-8.728C4.82,-8.728,8.728,-4.82,8.728,0Z" /></g></g><g transform="matrix(0,-3.15,3.15,0,231.999,213.489)"><g transform="matrix(1,0,0,1,4.208,6.892)"><path fill="url(#i5)" d="M-1,-5.56C-1,-5.56,-1,-5.151,-1,-5.151C-2.857,-4.795,-3.531,-3.472,-3.531,-2.299C-3.531,-0.119,-1.638,0.507,-0.255,0.964C0.828,1.321,1.492,1.568,1.492,2.106C1.492,2.375,1.492,2.937,0.069,2.937C-0.625,2.937,-1.262,2.636,-1.881,2.019C-2.041,1.858,-2.31,1.589,-2.794,1.589C-3.436,1.589,-3.958,2.117,-3.958,2.767C-3.958,2.982,-3.896,3.2,-3.783,3.38C-3.242,4.256,-2.198,4.918,-1,5.16C-1,5.16,-1,5.56,-1,5.56C-1,6.157,-0.52,6.642,0.069,6.642C0.665,6.642,1.15,6.157,1.15,5.56C1.15,5.56,1.15,5.171,1.15,5.171C2.941,4.872,3.958,3.771,3.958,2.106C3.958,-0.205,1.988,-0.852,0.549,-1.326C-0.455,-1.656,-1.065,-1.886,-1.065,-2.299C-1.065,-2.887,-0.273,-2.95,0.069,-2.95C0.804,-2.95,1.39,-2.637,1.699,-2.338C2.001,-2.056,2.292,-1.918,2.588,-1.918C3.238,-1.918,3.766,-2.441,3.766,-3.083C3.766,-3.322,3.693,-3.558,3.548,-3.775C3.074,-4.443,2.213,-4.928,1.15,-5.134C1.15,-5.134,1.15,-5.56,1.15,-5.56C1.15,-6.157,0.665,-6.642,0.069,-6.642C-0.52,-6.642,-1,-6.157,-1,-5.56Z" /></g></g></g></g></g></g></g><g id="i28"><g transform="translate(246.291,727.923)"><animateTransform repeatCount="indefinite" type="translate" attributeName="transform" dur="3.226s" begin="0s" calcMode="spline" values="246.291 727.923; 246.291 287.923; 246.291 287.923; 246.291 727.923; 246.291 727.923; 246.291 287.923; 246.291 287.923; 246.291 727.923; 246.291 727.923" keyTimes="0; 0.206874; 0.258592; 0.465465; 0.517174; 0.724047; 0.775765; 0.982639; 1" keySplines="0.2 0 0.2 1; 0 0 1 1; 0.2 0 0.2 1; 0 0 1 1; 0.2 0 0.2 1; 0 0 1 1; 0.2 0 0.2 1; 0 0 1 1" fill="freeze" /><g transform="scale(3.5,3.5) translate(-19.548,-23.271)"><g transform="matrix(0.286,0,0,0.286,-50.821,-58.992)" visibility="hidden" id="i31"><animate repeatCount="indefinite" begin="0s" calcMode="discrete" dur="3.226s" values="hidden; visible; hidden; hidden" keyTimes="0; 0.776047; 0.99306; 1" attributeName="visibility" /><g clip-path="url(#i2)"><g transform="matrix(0,-3.15,3.15,0,196.442,302.906)" visibility="hidden"><animate repeatCount="indefinite" begin="0s" calcMode="discrete" dur="3.226s" values="hidden; visible; visible" keyTimes="0; 0.310019; 1" attributeName="visibility" /><g transform="matrix(1,0,0,1,32.594,18.18)"><path fill="url(#i16)" fill-rule="evenodd" d="M-25.684,-17.93C-29.356,-17.93,-32.344,-14.943,-32.344,-11.271C-32.344,-11.271,-32.344,11.271,-32.344,11.271C-32.344,14.943,-29.356,17.93,-25.684,17.93C-25.684,17.93,25.686,17.93,25.686,17.93C29.358,17.93,32.345,14.943,32.345,11.271C32.345,11.271,32.345,-11.271,32.345,-11.271C32.345,-14.943,29.358,-17.93,25.686,-17.93C25.686,-17.93,-25.684,-17.93,-25.684,-17.93Z" /></g><g transform="matrix(1,0,0,1,32.595,18.18)"><path fill="#deeaf9" d="M25.069,16C25.069,16,-25.069,16,-25.069,16C-27.83,16,-30.069,13.761,-30.069,11C-30.069,11,-30.069,-11,-30.069,-11C-30.069,-13.761,-27.83,-16,-25.069,-16C-25.069,-16,25.069,-16,25.069,-16C27.83,-16,30.069,-13.761,30.069,-11C30.069,-11,30.069,11,30.069,11C30.069,13.761,27.83,16,25.069,16Z" /></g></g><g transform="matrix(0,-3.15,3.15,0,220.335,233.608)" visibility="hidden"><animate repeatCount="indefinite" begin="0s" calcMode="discrete" dur="3.226s" values="hidden; visible; visible" keyTimes="0; 0.310019; 1" attributeName="visibility" /><g transform="matrix(1,0,0,1,10.595,10.595)"><path fill="url(#i17)" fill-rule="evenodd" d="M-10.345,0C-10.345,5.713,-5.713,10.345,0,10.345C5.713,10.345,10.345,5.713,10.345,0C10.345,-5.713,5.713,-10.345,0,-10.345C-5.713,-10.345,-10.345,-5.713,-10.345,0Z" /></g><g transform="matrix(1,0,0,1,10.595,10.595)"><path fill="#3d89f0" d="M8.728,0C8.728,4.82,4.82,8.728,0,8.728C-4.821,8.728,-8.728,4.82,-8.728,0C-8.728,-4.82,-4.821,-8.728,0,-8.728C4.82,-8.728,8.728,-4.82,8.728,0Z" /></g></g><g transform="matrix(0,-3.15,3.15,0,231.999,213.489)" visibility="hidden"><animate repeatCount="indefinite" begin="0s" calcMode="discrete" dur="3.226s" values="hidden; visible; visible" keyTimes="0; 0.310019; 1" attributeName="visibility" /><g transform="matrix(1,0,0,1,4.208,6.892)"><path fill="url(#i18)" d="M-1,-5.56C-1,-5.56,-1,-5.151,-1,-5.151C-2.857,-4.795,-3.531,-3.472,-3.531,-2.299C-3.531,-0.119,-1.638,0.507,-0.255,0.964C0.828,1.321,1.492,1.568,1.492,2.106C1.492,2.375,1.492,2.937,0.069,2.937C-0.625,2.937,-1.262,2.636,-1.881,2.019C-2.041,1.858,-2.31,1.589,-2.794,1.589C-3.436,1.589,-3.958,2.117,-3.958,2.767C-3.958,2.982,-3.896,3.2,-3.783,3.38C-3.242,4.256,-2.198,4.918,-1,5.16C-1,5.16,-1,5.56,-1,5.56C-1,6.157,-0.52,6.642,0.069,6.642C0.665,6.642,1.15,6.157,1.15,5.56C1.15,5.56,1.15,5.171,1.15,5.171C2.941,4.872,3.958,3.771,3.958,2.106C3.958,-0.205,1.988,-0.852,0.549,-1.326C-0.455,-1.656,-1.065,-1.886,-1.065,-2.299C-1.065,-2.887,-0.273,-2.95,0.069,-2.95C0.804,-2.95,1.39,-2.637,1.699,-2.338C2.001,-2.056,2.292,-1.918,2.588,-1.918C3.238,-1.918,3.766,-2.441,3.766,-3.083C3.766,-3.322,3.693,-3.558,3.548,-3.775C3.074,-4.443,2.213,-4.928,1.15,-5.134C1.15,-5.134,1.15,-5.56,1.15,-5.56C1.15,-6.157,0.665,-6.642,0.069,-6.642C-0.52,-6.642,-1,-6.157,-1,-5.56Z" /></g></g></g></g></g></g></g><g id="i28"><g transform="translate(246.291,727.923)"><animateTransform repeatCount="indefinite" type="translate" attributeName="transform" dur="3.226s" begin="0s" calcMode="spline" values="246.291 727.923; 246.291 287.923; 246.291 287.923; 246.291 727.923; 246.291 727.923; 246.291 287.923; 246.291 287.923; 246.291 727.923; 246.291 727.923" keyTimes="0; 0.206874; 0.258592; 0.465465; 0.517174; 0.724047; 0.775765; 0.982639; 1" keySplines="0.2 0 0.2 1; 0 0 1 1; 0.2 0 0.2 1; 0 0 1 1; 0.2 0 0.2 1; 0 0 1 1; 0.2 0 0.2 1; 0 0 1 1" fill="freeze" /><g transform="scale(3.5,3.5) translate(-19.548,-23.271)"><g transform="matrix(1,0,0,1,0,11)" visibility="visible" id="i34"><animate repeatCount="indefinite" begin="0s" calcMode="discrete" dur="3.226s" values="visible; hidden; hidden" keyTimes="0; 0.99306; 1" attributeName="visibility" /><g id="i35" transform="matrix(1,0,0,1,9.25,17.771)"><path fill="#c5dbf9" d="M0,-1.429C0,-1.429,0,-12.479,0,-12.479C0,-15.236,-2.404,-17.521,-5,-17.479C-6.405,-17.456,-9,-15.236,-9,-12.479C-9,-12.479,-9,4.763,-9,4.763C-9,7.428,-8.034,10.002,-6.278,12.008C-6.278,12.008,-2.752,17.179,-2.752,17.179C-2.563,17.397,-2.289,17.521,-2,17.521C-2,17.521,8,17.521,8,17.521C8.552,17.521,9,17.074,9,16.521C9,16.521,9,8.521,9,8.521C9,3.344,5.046,-0.926,0,-1.429Z" /></g><g id="i8" transform="matrix(1,0,0,1,20.25,47.292)"><path fill="url(#i20)" fill-rule="evenodd" d="M-13,-6C-14.657,-6,-16.001,-4.657,-16.001,-3C-16.001,-3,-16.001,3,-16.001,3C-16.001,4.657,-14.657,6,-13,6C-13,6,13,6,13,6C14.656,6,16,4.657,16,3C16,3,16,-3,16,-3C16,-4.657,14.656,-6,13,-6C13,-6,-13,-6,-13,-6Z" /></g><g id="i9" transform="matrix(1,0,0,1,20.25,38.292)"><path fill="#3d89f0" d="M16,-5C16,-5,-16,-5,-16,-5C-17.657,-5,-19,-3.657,-19,-2C-19,-2,-19,2,-19,2C-19,3.657,-17.657,5,-16,5C-16,5,16,5,16,5C17.657,5,19,3.657,19,2C19,2,19,-2,19,-2C19,-3.657,17.657,-5,16,-5Z" /></g></g></g></g></g><g transform="matrix(3.5,0,0,3.5,153.71,96.536)" visibility="visible" id="i36"><animate repeatCount="indefinite" begin="0s" calcMode="discrete" dur="3.226s" values="visible; hidden; hidden" keyTimes="0; 0.99306; 1" attributeName="visibility" /><g id="i9" transform="matrix(1,0,0,1,28.34,2.204)"><path d="" /></g></g></svg>