<svg fill="none" height="100%" width="100%" viewBox="0 0 400 400" xmlns:xlink="http://www.w3.org/1999/xlink" xmlns="http://www.w3.org/2000/svg"><g opacity="0" visibility="hidden" id="i0"><animate repeatCount="indefinite" begin="0s" calcMode="discrete" dur="3.667s" values="hidden; visible; visible" keyTimes="0; 0.627057; 1" attributeName="visibility" /><animate repeatCount="indefinite" attributeName="opacity" dur="3.667s" begin="0s" fill="freeze" values="0; 0; 0.99; 0.88; 0.88" keyTimes="0; 0.627273; 0.8; 0.809091; 1" keySplines="0 0 1 1; 0 0 1 1; 0 0 1 1; 0 0 1 1" calcMode="spline" /><g transform="translate(95,323) scale(1.592,1.592) translate(0,0)"><text fill="#888888" dominant-baseline="middle" text-anchor="start" font-weight="700" font-size="36" font-family="BerlinSansFBDemi-Bold, Arial, sans-serif" /></g></g><g visibility="hidden" id="i1"><animate repeatCount="indefinite" begin="0s" calcMode="discrete" dur="3.667s" values="hidden; visible; visible" keyTimes="0; 0.527048; 1" attributeName="visibility" /><g transform="translate(203,-132)"><animateMotion repeatCount="indefinite" dur="3.667s" begin="0s" calcMode="spline" keyTimes="0; 0.527273; 0.554545; 0.618182; 1" keySplines="0 0 1 1; 0 0 1 1; 0 0 1 1; 0 0 1 1" keyPoints="0; 0; 0.856; 1; 1" path="M0 0 C0 -31.167 0 410.917 0 333 C0 255.083 0 345.167 0 314" fill="freeze" /><g transform="scale(1.461,1.461) translate(-95.5,-62.5)"><g id="i2" transform="matrix(1,0,0,1,29.606,62.31)"><path fill="#f5a623" d="M-13.015,-51.155C-13.651,-48.739,-13.746,-46.102,-13.301,-43.241C-12.92,-41.271,-12.221,-39.427,-11.203,-37.711C-11.203,-37.711,-12.634,-23.79,-12.634,-23.79C-13.206,-26.333,-14.127,-28.557,-15.399,-30.465C-17.116,-33.007,-19.467,-34.85,-22.454,-35.995C-23.409,-36.376,-24.394,-36.662,-25.411,-36.853C-25.411,-36.853,-26.65,-37.044,-26.65,-37.044C-26.65,-37.044,-26.936,-35.327,-26.936,-35.327C-27.191,-33.992,-27.222,-32.562,-27.032,-31.036C-26.778,-26.651,-25.729,-23.155,-23.885,-20.548C-21.342,-17.306,-17.56,-15.685,-12.538,-15.685C-12.538,-15.685,-12.062,-7.676,-12.062,-7.676C-12.062,-7.676,-10.631,0.143,-10.631,0.143C-11.966,-2.781,-13.651,-5.165,-15.685,-7.009C-17.973,-9.361,-20.961,-10.854,-24.648,-11.49C-25.856,-11.68,-27.032,-11.776,-28.176,-11.776C-28.176,-11.776,-29.606,-11.68,-29.606,-11.68C-29.606,-11.68,-29.511,-9.678,-29.511,-9.678C-29.383,-8.026,-29.129,-6.405,-28.747,-4.816C-27.222,0.143,-25.157,3.798,-22.55,6.15C-18.864,9.201,-14.223,10.027,-8.629,8.629C-8.629,8.629,-6.436,15.97,-6.436,15.97C-6.436,15.97,-3.289,23.122,-3.289,23.122C-5.133,20.515,-7.612,18.164,-10.727,16.066C-13.778,14.095,-17.465,13.174,-21.787,13.301C-23.122,13.365,-24.457,13.523,-25.792,13.778C-25.792,13.778,-27.318,14.254,-27.318,14.254C-27.318,14.254,-26.65,16.448,-26.65,16.448C-26.014,18.227,-25.315,19.975,-24.552,21.692C-22.074,26.586,-18.864,30.146,-14.922,32.371C-10.218,34.722,-4.943,34.373,0.906,31.322C0.906,31.322,9.297,43.717,9.297,43.717C6.627,41.302,3.257,39.3,-0.811,37.71C-4.751,36.248,-9.01,36.121,-13.587,37.329C-14.986,37.71,-16.353,38.187,-17.687,38.759C-17.687,38.759,-19.308,39.617,-19.308,39.617C-19.308,39.617,-17.973,41.906,-17.973,41.906C-16.893,43.685,-15.685,45.402,-14.35,47.054C-12.698,49.152,-10.727,51.027,-8.439,52.68C-5.959,54.46,-3.512,55.699,-1.097,56.399C4.879,57.797,10.472,56.017,15.685,51.059C15.685,51.059,28.557,62.31,28.557,62.31C28.557,62.31,29.606,60.785,29.606,60.785C29.606,60.785,20.548,53.347,20.548,53.347C20.548,53.347,13.11,45.624,13.11,45.624C13.11,45.624,12.539,44.862,12.539,44.862C14.191,43.527,15.812,41.747,17.401,39.522C19.626,36.28,20.961,33.134,21.406,30.082C21.915,25.95,21.502,22.137,20.167,18.64C19.975,17.878,19.689,17.21,19.308,16.638C19.308,16.638,18.164,13.396,18.164,13.396C16.448,14.032,14.636,15.017,12.729,16.352C11.077,17.56,9.646,18.895,8.438,20.357C6.913,22.073,5.927,23.98,5.482,26.077C4.783,29.764,5.197,33.483,6.722,37.234C6.34,36.788,5.927,36.153,5.482,35.326C5.482,35.326,-0.619,24.552,-0.619,24.552C1.223,23.662,3.035,22.423,4.815,20.833C7.422,18.545,9.233,16.098,10.25,13.491C11.521,9.805,11.934,6.277,11.49,2.908C11.49,2.527,11.267,1.287,10.822,-0.811C10.822,-0.811,10.631,-2.241,10.631,-2.241C9.043,-1.987,7.262,-1.447,5.292,-0.62C3.576,0.015,2.018,0.906,0.62,2.05C-0.969,3.321,-2.146,4.815,-2.909,6.531C-4.244,9.328,-4.688,12.57,-4.244,16.257C-4.244,16.257,-8.057,3.957,-8.057,3.957C-8.057,3.957,-8.534,1.573,-8.534,1.573C-6.818,1.255,-4.974,0.588,-3.003,-0.429C-0.333,-1.891,1.7,-3.639,3.098,-5.674C3.798,-6.564,4.529,-8.121,5.292,-10.346C5.737,-11.68,6.087,-13.206,6.34,-14.923C6.531,-16.067,6.595,-17.211,6.531,-18.355C6.531,-18.355,6.436,-19.785,6.436,-19.785C4.974,-19.849,3.321,-19.69,1.478,-19.308C-2.273,-18.546,-5.07,-16.957,-6.912,-14.541C-8.756,-12.189,-9.774,-9.583,-9.964,-6.722C-10.155,-7.422,-10.25,-8.248,-10.25,-9.201C-10.25,-9.201,-10.917,-20.072,-10.917,-20.072C-10.917,-20.072,-10.823,-22.455,-10.823,-22.455C-6.055,-22.455,-2.273,-23.79,0.524,-26.46C1.415,-27.286,2.336,-28.526,3.29,-30.178C3.862,-31.068,4.465,-32.308,5.101,-33.897C5.101,-33.897,6.054,-38.188,6.054,-38.188C4.847,-38.506,3.417,-38.696,1.764,-38.76C-1.605,-38.76,-4.338,-37.87,-6.436,-36.09C-8.343,-34.564,-9.646,-32.657,-10.345,-30.369C-10.345,-30.369,-10.345,-31.513,-10.345,-31.513C-10.345,-31.513,-9.392,-37.425,-9.392,-37.425C-7.994,-38.696,-6.754,-40.063,-5.673,-41.525C-3.894,-43.623,-2.717,-45.784,-2.146,-48.009C-1.319,-51.696,-1.192,-54.874,-1.764,-57.544C-1.954,-58.688,-2.209,-59.832,-2.527,-60.976C-2.527,-60.976,-3.003,-62.311,-3.003,-62.311C-4.211,-61.739,-5.578,-60.849,-7.104,-59.641C-10.409,-56.781,-12.379,-53.952,-13.015,-51.155Z" /></g><g id="i3" transform="matrix(1,0,0,1,160.806,62.31)"><path fill="#f5a623" d="M13.111,-43.241C13.555,-45.974,13.428,-48.613,12.729,-51.155C12.093,-53.952,10.123,-56.781,6.818,-59.641C5.927,-60.404,4.974,-61.072,3.957,-61.644C3.957,-61.644,2.717,-62.311,2.717,-62.311C2.717,-62.311,1.573,-57.544,1.573,-57.544C1.002,-54.683,1.096,-51.505,1.859,-48.009C2.431,-45.784,3.607,-43.623,5.387,-41.525C6.468,-40.063,7.708,-38.696,9.106,-37.425C9.106,-37.425,10.441,-23.695,10.441,-23.695C9.678,-26.237,8.566,-28.24,7.103,-29.701C5.197,-31.545,2.464,-32.594,-1.096,-32.848C-1.096,-32.848,-5.483,-32.562,-5.483,-32.562C-5.483,-32.562,-5.291,-31.323,-5.291,-31.323C-5.291,-31.323,-4.529,-28.271,-4.529,-28.271C-3.956,-25.157,-2.59,-22.582,-0.429,-20.548C1.987,-17.815,5.61,-16.226,10.441,-15.781C10.441,-15.781,8.534,-0.143,8.534,-0.143C8.28,-3.449,7.549,-6.087,6.34,-8.057C4.371,-10.663,1.542,-12.475,-2.145,-13.492C-2.145,-13.492,-7.008,-14.16,-7.008,-14.16C-7.008,-14.16,-7.008,-9.297,-7.008,-9.297C-7.008,-5.737,-6.15,-2.622,-4.434,0.047C-3.162,2.209,-1.255,4.084,1.288,5.673C3.067,6.754,4.815,7.548,6.532,8.056C6.532,8.056,1.288,22.359,1.288,22.359C2.05,18.227,1.891,15.017,0.81,12.729C-0.588,9.487,-3.194,6.881,-7.008,4.91C-8.216,4.338,-9.455,3.829,-10.727,3.384C-10.727,3.384,-12.252,2.908,-12.252,2.908C-12.252,2.908,-12.633,4.433,-12.633,4.433C-12.951,5.641,-13.174,6.881,-13.301,8.152C-14,12.474,-13.841,16.002,-12.825,18.736C-11.934,21.405,-10.314,23.948,-7.961,26.363C-6.182,28.143,-4.465,29.478,-2.813,30.368C-4.021,32.53,-5.291,34.627,-6.626,36.661C-6.626,36.661,-11.013,42.573,-11.013,42.573C-9.042,38.06,-8.374,34.405,-9.01,31.608C-9.709,27.794,-11.87,24.393,-15.494,21.405C-16.638,20.515,-17.846,19.689,-19.118,18.926C-19.118,18.926,-20.643,18.068,-20.643,18.068C-20.897,18.386,-21.183,18.863,-21.501,19.498C-22.137,20.643,-22.677,21.882,-23.122,23.217C-23.44,24.298,-23.98,26.014,-24.743,28.366C-25.188,30.464,-25.284,32.53,-25.029,34.564C-24.838,37.615,-23.726,40.761,-21.692,44.003C-20.357,46.355,-18.895,48.262,-17.306,49.724C-17.306,49.724,-21.025,53.538,-21.025,53.538C-21.025,53.538,-29.892,60.785,-29.892,60.785C-29.892,60.785,-28.747,62.31,-28.747,62.31C-28.747,62.31,-19.594,54.682,-19.594,54.682C-19.594,54.682,-11.966,46.863,-11.966,46.863C-11.966,46.863,-11.299,46.006,-11.299,46.006C-5.704,50.582,-0.047,51.949,5.674,50.106C9.869,48.898,14.064,45.529,18.259,39.999C18.259,39.999,20.357,37.138,20.357,37.138C20.357,37.138,21.596,34.564,21.596,34.564C22.105,33.61,22.455,32.847,22.645,32.275C21.12,31.385,19.181,30.718,16.829,30.273C14.732,29.955,12.761,29.86,10.918,29.987C8.693,30.114,6.436,30.623,4.148,31.512C1.542,32.53,-1.637,34.786,-5.387,38.282C-5.387,38.282,1.096,27.508,1.096,27.508C1.096,27.508,2.05,25.315,2.05,25.315C8.025,27.921,13.269,27.889,17.783,25.219C21.152,23.376,24.107,19.626,26.65,13.968C27.604,11.934,28.271,10.155,28.653,8.629C28.653,8.629,29.034,6.436,29.034,6.436C27.508,5.991,25.665,5.8,23.504,5.863C21.978,5.863,20.261,6.118,18.355,6.626C16.257,7.262,14.318,8.152,12.539,9.296C10.314,10.822,8.057,13.364,5.769,16.924C5.769,16.924,6.054,16.257,6.054,16.257C6.054,16.257,9.678,4.433,9.678,4.433C9.678,4.433,10.059,2.05,10.059,2.05C15.844,3.003,20.357,1.859,23.599,-1.383C25.379,-3.035,26.619,-4.816,27.318,-6.722C27.953,-8.248,28.525,-10.25,29.034,-12.729C29.352,-14.319,29.606,-15.94,29.797,-17.592C29.797,-17.592,29.892,-19.595,29.892,-19.595C28.43,-19.722,26.746,-19.563,24.839,-19.118C21.089,-18.228,18.1,-16.512,15.876,-13.969C14.414,-12.444,12.983,-9.964,11.585,-6.532C11.776,-7.167,11.871,-7.994,11.871,-9.011C11.871,-9.011,12.443,-22.551,12.443,-22.551C17.401,-22.741,21.025,-24.585,23.313,-28.081C24.266,-29.67,24.998,-31.418,25.507,-33.325C25.697,-34.533,25.792,-36.345,25.792,-38.76C25.792,-38.76,25.22,-44.767,25.22,-44.767C23.949,-44.576,22.55,-44.131,21.025,-43.432C17.846,-41.907,15.558,-39.904,14.16,-37.425C13.269,-35.836,12.57,-33.547,12.062,-30.56C12.062,-30.56,11.013,-37.711,11.013,-37.711C12.03,-39.681,12.729,-41.525,13.111,-43.241Z" /></g></g></g></g><g visibility="visible" id="i4"><animate repeatCount="indefinite" begin="0s" calcMode="discrete" dur="3.667s" values="visible; hidden; hidden" keyTimes="0; 0.418038; 1" attributeName="visibility" /><animate repeatCount="indefinite" attributeName="opacity" dur="3.667s" begin="0s" fill="freeze" values="1; 1; 0.56; 0.56" keyTimes="0; 0.363636; 0.4; 1" keySplines="0 0 1 1; 0 0 1 1; 0 0 1 1" calcMode="spline" /><g transform="translate(203,168)"><g transform="rotate(0)"><animateTransform repeatCount="indefinite" type="rotate" attributeName="transform" dur="3.667s" begin="0s" calcMode="spline" values="0; 0; -12.095; 23.206; 23.206" keyTimes="0; 0.318182; 0.363636; 0.4; 1" keySplines="0 0 1 1; 0 0 1 1; 0 0 1 1; 0 0 1 1" fill="freeze" /><g transform="scale(1.339,1.339)"><animateTransform repeatCount="indefinite" type="scale" attributeName="transform" dur="3.667s" begin="0s" calcMode="spline" values="1.339 1.339; 1.339 1.339; 1.339 1.339; -1.357 1.336; -0.791 1.41; 1.341 1.183; 0.158 0.075; 0.158 0.075" keyTimes="0; 0.227273; 0.272727; 0.318182; 0.363636; 0.4; 0.418182; 1" keySplines="0 0 1 1; 0 0 1 1; 0 0 1 1; 0 0 1 1; 0 0 1 1; 0 0 1 1; 0 0 1 1" fill="freeze" /><g transform="translate(-47,-71.5)"><g id="i5" transform="matrix(1,0,0,1,46.578,138.447)"><path fill="#f5a623" d="M25.602,-2.86C24.776,-3.686,23.757,-4.1,22.549,-4.1C22.549,-4.1,-22.549,-4.1,-22.549,-4.1C-23.757,-4.1,-24.774,-3.686,-25.6,-2.86C-26.427,-2.034,-26.84,-1.017,-26.84,0.191C-26.84,0.191,-26.84,4.1,-26.84,4.1C-26.84,4.1,26.84,4.1,26.84,4.1C26.84,4.1,26.84,0.191,26.84,0.191C26.84,-1.017,26.428,-2.034,25.602,-2.86Z" /></g><g id="i6" transform="matrix(1,0,0,1,46.578,122.953)"><path fill="#f5a623" d="M22.55,-8.915C22.55,-8.915,-22.55,-8.915,-22.55,-8.915C-22.55,-8.915,-22.55,8.915,-22.55,8.915C-22.55,8.915,22.55,8.915,22.55,8.915C22.55,8.915,22.55,-8.915,22.55,-8.915Z" /></g><g id="i2" transform="matrix(1,0,0,1,46.578,107.268)"><path fill="#f5a623" d="M25.602,-3.051C24.776,-3.878,23.757,-4.291,22.549,-4.291C22.549,-4.291,-22.549,-4.291,-22.549,-4.291C-23.757,-4.291,-24.774,-3.878,-25.6,-3.051C-26.427,-2.225,-26.84,-1.208,-26.84,0C-26.84,1.208,-26.427,2.225,-25.6,3.051C-24.774,3.878,-23.757,4.291,-22.549,4.291C-22.549,4.291,22.549,4.291,22.549,4.291C23.757,4.291,24.776,3.878,25.602,3.051C26.428,2.225,26.84,1.208,26.84,0C26.84,-1.208,26.428,-2.225,25.602,-3.051Z" /></g><g id="i3" transform="matrix(1,0,0,1,46.578,50.249)"><path fill="#f5a623" fill-rule="evenodd" d="M46.578,-42.908C46.578,-42.908,46.578,-45.1,46.578,-45.1C46.578,-45.1,34.85,-45.1,34.85,-45.1C34.85,-45.1,34.945,-50.249,34.945,-50.249C34.945,-50.249,-34.946,-50.249,-34.946,-50.249C-34.946,-50.249,-34.85,-45.1,-34.85,-45.1C-34.85,-45.1,-46.578,-45.1,-46.578,-45.1C-46.578,-45.1,-46.578,-42.908,-46.578,-42.908C-46.578,-29.876,-44.226,-18.88,-39.523,-9.917C-34.819,-0.954,-29.033,3.559,-22.168,3.623C-19.88,7.373,-17.306,10.551,-14.446,13.158C-14.446,13.158,-14.35,14.397,-14.35,14.397C-14.286,15.987,-13.714,17.417,-12.634,18.688C-11.616,19.96,-10.314,20.786,-8.725,21.167C-8.725,21.167,-8.439,21.167,-8.439,21.167C-8.439,21.167,-8.439,35.279,-8.439,35.279C-8.439,35.279,-8.725,35.374,-8.725,35.374C-10.314,35.692,-11.616,36.487,-12.634,37.758C-13.714,39.029,-14.286,40.491,-14.35,42.144C-14.35,42.144,-14.446,42.907,-14.446,42.907C-17.306,44.496,-18.737,46.943,-18.737,50.249C-18.737,50.249,18.736,50.249,18.736,50.249C18.736,46.943,17.305,44.496,14.445,42.907C14.445,42.907,14.35,42.144,14.35,42.144C14.287,40.491,13.746,39.029,12.729,37.758C11.712,36.487,10.377,35.692,8.724,35.374C8.724,35.374,8.438,35.374,8.438,35.374C8.438,35.374,8.438,21.167,8.438,21.167C8.438,21.167,8.724,21.167,8.724,21.167C10.377,20.786,11.712,19.96,12.729,18.688C13.746,17.48,14.287,16.05,14.35,14.397C14.35,14.397,14.445,13.158,14.445,13.158C17.305,10.551,19.881,7.373,22.169,3.623C29.034,3.559,34.818,-0.954,39.522,-9.917C44.226,-18.88,46.578,-29.876,46.578,-42.908ZM42.287,-40.81C42.033,-30.83,40.221,-22.026,36.852,-14.398C33.547,-6.897,29.543,-2.448,24.839,-1.049C30.369,-12.173,33.642,-25.427,34.659,-40.81C34.659,-40.81,42.287,-40.81,42.287,-40.81ZM-36.853,-14.398C-40.222,-22.026,-42.033,-30.83,-42.287,-40.81C-42.287,-40.81,-34.659,-40.81,-34.659,-40.81C-33.643,-25.427,-30.368,-12.173,-24.838,-1.049C-29.542,-2.448,-33.547,-6.897,-36.853,-14.398ZM-8.343,18.688C-10.06,18.307,-11.172,17.258,-11.68,15.542C-11.68,15.542,11.68,15.542,11.68,15.542C11.172,17.258,10.059,18.307,8.344,18.688C8.344,18.688,-8.343,18.688,-8.343,18.688ZM-8.343,37.758C-8.343,37.758,8.344,37.758,8.344,37.758C10.059,38.266,11.172,39.315,11.68,40.904C11.68,40.904,-11.68,40.904,-11.68,40.904C-11.172,39.315,-10.06,38.266,-8.343,37.758Z" /></g></g></g></g></g></g><g opacity="0.08" visibility="hidden" id="i7"><animate repeatCount="indefinite" begin="0s" calcMode="discrete" dur="3.667s" values="hidden; visible; visible" keyTimes="0; 0.500045; 1" attributeName="visibility" /><animate repeatCount="indefinite" attributeName="opacity" dur="3.667s" begin="0s" fill="freeze" values="0.08; 0.08; 1; 1; 1" keyTimes="0; 0.5; 0.545455; 0.654545; 1" keySplines="0 0 1 1; 0 0 1 1; 0 0 1 1; 0 0 1 1" calcMode="spline" /><g transform="translate(203,168)"><g transform="scale(0.386,0.386)"><animateTransform repeatCount="indefinite" type="scale" attributeName="transform" dur="3.667s" begin="0s" calcMode="spline" values="0.386 0.386; 0.386 0.386; 1.76 1.76; 1.339 1.339; 1.339 1.339" keyTimes="0; 0.5; 0.545454; 0.6; 1" keySplines="0 0 1 1; 0 0 1 1; 0 0 1 1; 0 0 1 1" fill="freeze" /><g transform="translate(-47,-71.5)"><g id="i5" transform="matrix(1,0,0,1,46.578,138.447)"><path fill="#f5a623" d="M25.602,-2.86C24.776,-3.686,23.757,-4.1,22.549,-4.1C22.549,-4.1,-22.549,-4.1,-22.549,-4.1C-23.757,-4.1,-24.774,-3.686,-25.6,-2.86C-26.427,-2.034,-26.84,-1.017,-26.84,0.191C-26.84,0.191,-26.84,4.1,-26.84,4.1C-26.84,4.1,26.84,4.1,26.84,4.1C26.84,4.1,26.84,0.191,26.84,0.191C26.84,-1.017,26.428,-2.034,25.602,-2.86Z" /></g><g id="i6" transform="matrix(1,0,0,1,46.578,122.953)"><path fill="#f5a623" d="M22.55,-8.915C22.55,-8.915,-22.55,-8.915,-22.55,-8.915C-22.55,-8.915,-22.55,8.915,-22.55,8.915C-22.55,8.915,22.55,8.915,22.55,8.915C22.55,8.915,22.55,-8.915,22.55,-8.915Z" /></g><g id="i2" transform="matrix(1,0,0,1,46.578,107.268)"><path fill="#f5a623" d="M25.602,-3.051C24.776,-3.878,23.757,-4.291,22.549,-4.291C22.549,-4.291,-22.549,-4.291,-22.549,-4.291C-23.757,-4.291,-24.774,-3.878,-25.6,-3.051C-26.427,-2.225,-26.84,-1.208,-26.84,0C-26.84,1.208,-26.427,2.225,-25.6,3.051C-24.774,3.878,-23.757,4.291,-22.549,4.291C-22.549,4.291,22.549,4.291,22.549,4.291C23.757,4.291,24.776,3.878,25.602,3.051C26.428,2.225,26.84,1.208,26.84,0C26.84,-1.208,26.428,-2.225,25.602,-3.051Z" /></g><g id="i3" transform="matrix(1,0,0,1,46.578,50.249)"><path fill="#f5a623" fill-rule="evenodd" d="M46.578,-42.908C46.578,-42.908,46.578,-45.1,46.578,-45.1C46.578,-45.1,34.85,-45.1,34.85,-45.1C34.85,-45.1,34.945,-50.249,34.945,-50.249C34.945,-50.249,-34.946,-50.249,-34.946,-50.249C-34.946,-50.249,-34.85,-45.1,-34.85,-45.1C-34.85,-45.1,-46.578,-45.1,-46.578,-45.1C-46.578,-45.1,-46.578,-42.908,-46.578,-42.908C-46.578,-29.876,-44.226,-18.88,-39.523,-9.917C-34.819,-0.954,-29.033,3.559,-22.168,3.623C-19.88,7.373,-17.306,10.551,-14.446,13.158C-14.446,13.158,-14.35,14.397,-14.35,14.397C-14.286,15.987,-13.714,17.417,-12.634,18.688C-11.616,19.96,-10.314,20.786,-8.725,21.167C-8.725,21.167,-8.439,21.167,-8.439,21.167C-8.439,21.167,-8.439,35.279,-8.439,35.279C-8.439,35.279,-8.725,35.374,-8.725,35.374C-10.314,35.692,-11.616,36.487,-12.634,37.758C-13.714,39.029,-14.286,40.491,-14.35,42.144C-14.35,42.144,-14.446,42.907,-14.446,42.907C-17.306,44.496,-18.737,46.943,-18.737,50.249C-18.737,50.249,18.736,50.249,18.736,50.249C18.736,46.943,17.305,44.496,14.445,42.907C14.445,42.907,14.35,42.144,14.35,42.144C14.287,40.491,13.746,39.029,12.729,37.758C11.712,36.487,10.377,35.692,8.724,35.374C8.724,35.374,8.438,35.374,8.438,35.374C8.438,35.374,8.438,21.167,8.438,21.167C8.438,21.167,8.724,21.167,8.724,21.167C10.377,20.786,11.712,19.96,12.729,18.688C13.746,17.48,14.287,16.05,14.35,14.397C14.35,14.397,14.445,13.158,14.445,13.158C17.305,10.551,19.881,7.373,22.169,3.623C29.034,3.559,34.818,-0.954,39.522,-9.917C44.226,-18.88,46.578,-29.876,46.578,-42.908ZM42.287,-40.81C42.033,-30.83,40.221,-22.026,36.852,-14.398C33.547,-6.897,29.543,-2.448,24.839,-1.049C30.369,-12.173,33.642,-25.427,34.659,-40.81C34.659,-40.81,42.287,-40.81,42.287,-40.81ZM-36.853,-14.398C-40.222,-22.026,-42.033,-30.83,-42.287,-40.81C-42.287,-40.81,-34.659,-40.81,-34.659,-40.81C-33.643,-25.427,-30.368,-12.173,-24.838,-1.049C-29.542,-2.448,-33.547,-6.897,-36.853,-14.398ZM-8.343,18.688C-10.06,18.307,-11.172,17.258,-11.68,15.542C-11.68,15.542,11.68,15.542,11.68,15.542C11.172,17.258,10.059,18.307,8.344,18.688C8.344,18.688,-8.343,18.688,-8.343,18.688ZM-8.343,37.758C-8.343,37.758,8.344,37.758,8.344,37.758C10.059,38.266,11.172,39.315,11.68,40.904C11.68,40.904,-11.68,40.904,-11.68,40.904C-11.172,39.315,-10.06,38.266,-8.343,37.758Z" /></g></g></g></g></g><g visibility="hidden" id="i8"><animate repeatCount="indefinite" begin="0s" calcMode="discrete" dur="3.667s" values="hidden; visible; hidden; hidden" keyTimes="0; 0.418038; 0.500045; 1" attributeName="visibility" /><animate repeatCount="indefinite" attributeName="opacity" dur="3.667s" begin="0s" fill="freeze" values="1; 1; 0; 0" keyTimes="0; 0.427273; 0.481818; 1" keySplines="0 0 1 1; 0 0 1 1; 0 0 1 1" calcMode="spline" /><g transform="translate(202.875,172.708) scale(0.81,0.81) translate(3.75,27.042)"><g><animate repeatCount="indefinite" attributeName="opacity" dur="3.667s" begin="0s" fill="freeze" values="1; 1; 0.95; 0; 0" keyTimes="0; 0.427273; 0.454545; 0.490909; 1" keySplines="0 0 1 1; 0 0 1 1; 0 0 1 1; 0 0 1 1" calcMode="spline" /><g id="i9" transform="translate(-4,-27) rotate(100)"><ellipse ry="7.5" rx="7.5" cy="0" cx="0" stroke-width="2" stroke="#f5a623" /></g></g></g></g><g transform="matrix(1,0,0,1.047,201.5,203.5)" visibility="hidden" id="i10"><animate repeatCount="indefinite" begin="0s" calcMode="discrete" dur="3.667s" values="hidden; visible; hidden; hidden" keyTimes="0; 0.209019; 0.418038; 1" attributeName="visibility" /><g opacity="0"><animate repeatCount="indefinite" attributeName="opacity" dur="3.667s" begin="0s" fill="freeze" values="0; 0; 1; 1" keyTimes="0; 0.227273; 0.263636; 1" keySplines="0 0 1 1; 0 0 1 1; 0 0 1 1" calcMode="spline" /><g transform="translate(-33.5,-1.282)"><animateTransform repeatCount="indefinite" type="translate" attributeName="transform" dur="3.667s" begin="0s" calcMode="spline" values="-33.5 -1.282; -33.5 -1.282; -143.5 36.724; -149.5 40.769; -138.5 35.179; -122 24.679; -8.5 -28.978; -8.5 -28.978" keyTimes="0; 0.227273; 0.263636; 0.3; 0.345454; 0.363636; 0.4; 1" keySplines="0 0 1 1; 0 0 1 1; 0 0 1 1; 0 0 1 1; 0 0 1 1; 0 0 1 1; 0 0 1 1" fill="freeze" /><g transform="rotate(63.033)"><animateTransform repeatCount="indefinite" type="rotate" attributeName="transform" dur="3.667s" begin="0s" calcMode="spline" values="63.033; 63.033; -26.483; -73.618; -90.82; -97.045; -100.467; -100.467" keyTimes="0; 0.227273; 0.263636; 0.3; 0.345454; 0.363636; 0.4; 1" keySplines="0 0 1 1; 0 0 1 1; 0 0 1 1; 0 0 1 1; 0 0 1 1; 0 0 1 1; 0 0 1 1" fill="freeze" /><g id="i11" transform="scale(0.378,0.378)"><path d="M17,22C17,22,-27.553,3.722,-27.553,3.722C-27.553,3.722,10.553,-25.723,10.553,-25.723C10.553,-25.723,17,22,17,22Z" stroke-width="6" stroke="#f5a623" /></g></g></g></g></g><g opacity="0.13" visibility="hidden" id="i12"><animate repeatCount="indefinite" begin="0s" calcMode="discrete" dur="3.667s" values="hidden; visible; hidden; hidden" keyTimes="0; 0.209019; 0.418038; 1" attributeName="visibility" /><animate repeatCount="indefinite" attributeName="opacity" dur="3.667s" begin="0s" fill="freeze" values="0.13; 0.13; 1; 1" keyTimes="0; 0.218182; 0.245455; 1" keySplines="0 0 1 1; 0 0 1 1; 0 0 1 1" calcMode="spline" /><g transform="translate(217,217.5)"><animateTransform repeatCount="indefinite" type="translate" attributeName="transform" dur="3.667s" begin="0s" calcMode="spline" values="217 217.5; 217 217.5; 240.5 290.5; 248 299.5; 242 292.5; 212.219 259.216; 193 172; 193 172" keyTimes="0; 0.218182; 0.245455; 0.281818; 0.318182; 0.372727; 0.4; 1" keySplines="0 0 1 1; 0 0 1 1; 0 0 1 1; 0 0 1 1; 0 0 1 1; 0 0 1 1; 0 0 1 1" fill="freeze" /><g transform="rotate(23.724)"><animateTransform repeatCount="indefinite" type="rotate" attributeName="transform" dur="3.667s" begin="0s" calcMode="spline" values="23.724; 23.724; -205.244; -236.125; -258.13; -262.084; -262.084" keyTimes="0; 0.218182; 0.245455; 0.281818; 0.318182; 0.4; 1" keySplines="0 0 1 1; 0 0 1 1; 0 0 1 1; 0 0 1 1; 0 0 1 1; 0 0 1 1" fill="freeze" /><g transform="scale(1,1.047) translate(-52,-31.042)"><g id="i11" transform="matrix(0.259,0.275,-0.275,0.259,52.394,32.432)" opacity="0.182"><path d="M17,22C17,22,-27.553,3.722,-27.553,3.722C-27.553,3.722,10.553,-25.723,10.553,-25.723C10.553,-25.723,17,22,17,22Z" stroke-width="6" stroke="#f5a623" /></g></g></g></g></g><g opacity="0" visibility="hidden" id="i13"><animate repeatCount="indefinite" begin="0s" calcMode="discrete" dur="3.667s" values="hidden; visible; hidden; hidden" keyTimes="0; 0.209019; 0.418038; 1" attributeName="visibility" /><animate repeatCount="indefinite" attributeName="opacity" dur="3.667s" begin="0s" fill="freeze" values="0; 0; 0.86; 0.83; 0; 0" keyTimes="0; 0.209091; 0.272727; 0.381818; 0.418182; 1" keySplines="0 0 1 1; 0 0 1 1; 0 0 1 1; 0 0 1 1; 0 0 1 1" calcMode="spline" /><g transform="translate(204.5,85)"><animateTransform repeatCount="indefinite" type="translate" attributeName="transform" dur="3.667s" begin="0s" calcMode="spline" values="204.5 85; 204.5 85; 208.75 59.5; 210.25 55; 205.75 58.5; 207.474 76.192; 191.75 167.5; 191.75 167.5" keyTimes="0; 0.209091; 0.272727; 0.318182; 0.354546; 0.381818; 0.418182; 1" keySplines="0 0 1 1; 0 0 1 1; 0 0 1 1; 0 0 1 1; 0 0 1 1; 0 0 1 1; 0 0 1 1" fill="freeze" /><g transform="rotate(-152.133)"><animateTransform repeatCount="indefinite" type="rotate" attributeName="transform" dur="3.667s" begin="0s" calcMode="spline" values="-152.133; -152.133; -211.406; -239.962; -252.711; -252.711" keyTimes="0; 0.209091; 0.272727; 0.318182; 0.354545; 1" keySplines="0 0 1 1; 0 0 1 1; 0 0 1 1; 0 0 1 1; 0 0 1 1" fill="freeze" /><g transform="scale(1,1.047) translate(-52,-31.042)"><g id="i11" transform="matrix(0.259,0.275,-0.275,0.259,52.394,32.432)" opacity="0.182"><path d="M17,22C17,22,-27.553,3.722,-27.553,3.722C-27.553,3.722,10.553,-25.723,10.553,-25.723C10.553,-25.723,17,22,17,22Z" stroke-width="6" stroke="#f5a623" /></g></g></g></g></g><g opacity="0.13" visibility="hidden" id="i14"><animate repeatCount="indefinite" begin="0s" calcMode="discrete" dur="3.667s" values="hidden; visible; hidden; hidden" keyTimes="0; 0.209019; 0.418038; 1" attributeName="visibility" /><animate repeatCount="indefinite" attributeName="opacity" dur="3.667s" begin="0s" fill="freeze" values="0.13; 0.13; 0.97; 0.97; 0; 0" keyTimes="0; 0.218182; 0.309091; 0.336364; 0.418182; 1" keySplines="0 0 1 1; 0 0 1 1; 0 0 1 1; 0 0 1 1; 0 0 1 1" calcMode="spline" /><g transform="translate(213.25,167.25)"><animateTransform repeatCount="indefinite" type="translate" attributeName="transform" dur="3.667s" begin="0s" calcMode="spline" values="213.25 167.25; 213.25 167.25; 321.518 136.526; 336.062 132.688; 336.062 132.688; 317.886 136.173; 283.417 146.98; 194.062 172.188; 194.062 172.188" keyTimes="0; 0.218182; 0.263636; 0.309091; 0.336364; 0.363636; 0.390909; 0.418182; 1" keySplines="0 0 1 1; 0 0 1 1; 0 0 1 1; 0 0 1 1; 0 0 1 1; 0 0 1 1; 0 0 1 1; 0 0 1 1" fill="freeze" /><g transform="scale(0.891,1) translate(-136.31,66.5)"><g id="i9" transform="matrix(0.675,0,0,0.675,136.25,-66.5)"><ellipse ry="9.5" rx="9.5" cy="0" cx="0" stroke-width="3" stroke="#f5a623" /></g></g></g></g><g opacity="0.13" visibility="hidden" id="i15"><animate repeatCount="indefinite" begin="0s" calcMode="discrete" dur="3.667s" values="hidden; visible; hidden; hidden" keyTimes="0; 0.209019; 0.418038; 1" attributeName="visibility" /><animate repeatCount="indefinite" attributeName="opacity" dur="3.667s" begin="0s" fill="freeze" values="0.13; 0.13; 1; 1" keyTimes="0; 0.218182; 0.263636; 1" keySplines="0 0 1 1; 0 0 1 1; 0 0 1 1" calcMode="spline" /><g transform="translate(183.25,166.25)"><animateTransform repeatCount="indefinite" type="translate" attributeName="transform" dur="3.667s" begin="0s" calcMode="spline" values="183.25 166.25; 183.25 166.25; 92 88.5; 84 81.5; 81.25 79.75; 95.991 91.963; 109.572 102.707; 143.855 131.886; 192.5 171.25; 192.5 171.25" keyTimes="0; 0.218182; 0.263636; 0.3; 0.345455; 0.363636; 0.381818; 0.4; 0.418182; 1" keySplines="0 0 1 1; 0 0 1 1; 0 0 1 1; 0 0 1 1; 0 0 1 1; 0 0 1 1; 0 0 1 1; 0 0 1 1; 0 0 1 1" fill="freeze" /><g transform="scale(0.891,0.922) translate(-136.31,66.5)"><g id="i9" transform="matrix(0.675,0,0,0.675,136.25,-66.5)"><ellipse ry="9.5" rx="9.5" cy="0" cx="0" stroke-width="3" stroke="#f5a623" /></g></g></g></g><g opacity="0.87" visibility="hidden" id="i16"><animate repeatCount="indefinite" begin="0s" calcMode="discrete" dur="3.667s" values="hidden; visible; hidden; hidden" keyTimes="0; 0.209019; 0.418038; 1" attributeName="visibility" /><g transform="translate(182.25,168.25)"><animateTransform repeatCount="indefinite" type="translate" attributeName="transform" dur="3.667s" begin="0s" calcMode="spline" values="182.25 168.25; 182.25 168.25; 21.285 200.37; -15.25 209.75; -15.25 209.75; 7.25 197.75; 33.751 187.583; 64.927 177.805; 136.087 168.777; 193.25 171.75; 193.25 171.75" keyTimes="0; 0.218182; 0.245455; 0.281818; 0.309091; 0.336364; 0.363636; 0.381818; 0.4; 0.418182; 1" keySplines="0 0 1 1; 0 0 1 1; 0 0 1 1; 0 0 1 1; 0 0 1 1; 0 0 1 1; 0 0 1 1; 0 0 1 1; 0 0 1 1; 0 0 1 1" fill="freeze" /><g transform="scale(0.891,0.922) translate(-136.31,66.5)"><g id="i9" transform="matrix(0.675,0,0,0.675,136.25,-66.5)"><ellipse ry="9.5" rx="9.5" cy="0" cx="0" stroke-width="3" stroke="#f5a623" /></g></g></g></g><g opacity="0.52" visibility="hidden" id="i17"><animate repeatCount="indefinite" begin="0s" calcMode="discrete" dur="3.667s" values="hidden; visible; hidden; hidden" keyTimes="0; 0.209019; 0.418038; 1" attributeName="visibility" /><animate repeatCount="indefinite" attributeName="opacity" dur="3.667s" begin="0s" fill="freeze" values="0.52; 0.52; 1; 1" keyTimes="0; 0.227273; 0.245455; 1" keySplines="0 0 1 1; 0 0 1 1; 0 0 1 1" calcMode="spline" /><g transform="translate(222,185.5)"><animateTransform repeatCount="indefinite" type="translate" attributeName="transform" dur="3.667s" begin="0s" calcMode="spline" values="222 185.5; 222 185.5; 253 201; 293.575 222.295; 309.475 229.428; 320.758 236.616; 328.258 240.366; 329.131 240.481; 315.009 234.267; 283.518 217.296; 236.104 194.268; 193.508 171.366; 193.508 171.366" keyTimes="0; 0.209091; 0.227273; 0.245455; 0.272727; 0.290909; 0.318182; 0.336364; 0.363636; 0.390909; 0.409091; 0.418182; 1" keySplines="0 0 1 1; 0 0 1 1; 0 0 1 1; 0 0 1 1; 0 0 1 1; 0 0 1 1; 0 0 1 1; 0 0 1 1; 0 0 1 1; 0 0 1 1; 0 0 1 1; 0 0 1 1" fill="freeze" /><g transform="rotate(8.259)"><animateTransform repeatCount="indefinite" type="rotate" attributeName="transform" dur="3.667s" begin="0s" calcMode="spline" values="8.259; 8.259; -58.371; -135.389; -161.229; -172.238; -178.484; -178.484" keyTimes="0; 0.227273; 0.245454; 0.290909; 0.318182; 0.345455; 0.409091; 1" keySplines="0 0 1 1; 0 0 1 1; 0 0 1 1; 0 0 1 1; 0 0 1 1; 0 0 1 1; 0 0 1 1" fill="freeze" /><g transform="scale(1,1) translate(-80.25,123.75)"><g id="i18" transform="matrix(0.682,0,0,0.682,80.167,-123.833)"><rect height="16" width="16" y="-8" x="-8" stroke-width="2" stroke="#f5a623" /></g></g></g></g></g><g visibility="hidden" id="i19"><animate repeatCount="indefinite" begin="0s" calcMode="discrete" dur="3.667s" values="hidden; visible; hidden; hidden" keyTimes="0; 0.245022; 0.309028; 1" attributeName="visibility" /><g transform="translate(163.375,216.75)"><animateTransform repeatCount="indefinite" type="translate" attributeName="transform" dur="3.667s" begin="0s" calcMode="spline" values="163.375 216.75; 163.375 216.75; 74 297.375; 42.125 326; 42.125 326" keyTimes="0; 0.245455; 0.263636; 0.309091; 1" keySplines="0 0 1 1; 0 0 1 1; 0 0 1 1; 0 0 1 1" fill="freeze" /><g transform="scale(1,1)"><animateTransform repeatCount="indefinite" type="scale" attributeName="transform" dur="3.667s" begin="0s" calcMode="spline" values="1 1; 1 1; 0.73 0.78; 0.315 0.329; 0.315 0.329" keyTimes="0; 0.245455; 0.263636; 0.309091; 1" keySplines="0 0 1 1; 0 0 1 1; 0 0 1 1; 0 0 1 1" fill="freeze" /><g transform="translate(110.125,-23.75)"><g id="i20" transform="matrix(1,0,0,1,0,0)"><path stroke-width="2" stroke="#f5a623" d="M-99,13.5C-99,13.5,-120.5,33.5,-120.5,33.5" /></g></g></g></g></g><g visibility="hidden" id="i21"><animate repeatCount="indefinite" begin="0s" calcMode="discrete" dur="3.667s" values="hidden; visible; hidden; hidden" keyTimes="0; 0.245022; 0.318029; 1" attributeName="visibility" /><g transform="translate(257.625,181.75)"><animateTransform repeatCount="indefinite" type="translate" attributeName="transform" dur="3.667s" begin="0s" calcMode="spline" values="257.625 181.75; 257.625 181.75; 319.75 195.125; 322.875 196.375; 322.875 196.375" keyTimes="0; 0.245455; 0.3; 0.309091; 1" keySplines="0 0 1 1; 0 0 1 1; 0 0 1 1; 0 0 1 1" fill="freeze" /><g transform="rotate(-126.405)"><g transform="scale(1,1)"><animateTransform repeatCount="indefinite" type="scale" attributeName="transform" dur="3.667s" begin="0s" calcMode="spline" values="1 1; 1 1; 0.378 0.378; 0.277 0.277; 0.277 0.277" keyTimes="0; 0.245455; 0.3; 0.309091; 1" keySplines="0 0 1 1; 0 0 1 1; 0 0 1 1; 0 0 1 1" fill="freeze" /><g transform="translate(110.125,-23.75)"><g id="i20" transform="matrix(1,0,0,1,0,0)"><path stroke-width="2" stroke="#f5a623" d="M-99,13.5C-99,13.5,-120.5,33.5,-120.5,33.5" /></g></g></g></g></g></g><g visibility="hidden" id="i22"><animate repeatCount="indefinite" begin="0s" calcMode="discrete" dur="3.667s" values="hidden; visible; hidden; hidden" keyTimes="0; 0.236021; 0.373034; 1" attributeName="visibility" /><g transform="translate(237.125,123.25)"><animateTransform repeatCount="indefinite" type="translate" attributeName="transform" dur="3.667s" begin="0s" calcMode="spline" values="237.125 123.25; 237.125 123.25; 254.375 104; 276.958 80.346; 287.875 69.625; 287.875 69.625" keyTimes="0; 0.236364; 0.254546; 0.3; 0.363637; 1" keySplines="0 0 1 1; 0 0 1 1; 0 0 1 1; 0 0 1 1; 0 0 1 1" fill="freeze" /><g transform="rotate(-185.173)"><g transform="scale(0.661,0.661)"><animateTransform repeatCount="indefinite" type="scale" attributeName="transform" dur="3.667s" begin="0s" calcMode="spline" values="0.661 0.661; 0.661 0.661; 0.724 0.724; 0.215 0.215; 0.215 0.215" keyTimes="0; 0.236364; 0.254546; 0.363637; 1" keySplines="0 0 1 1; 0 0 1 1; 0 0 1 1; 0 0 1 1" fill="freeze" /><g transform="translate(110.125,-23.75)"><g id="i20" transform="matrix(1,0,0,1,0,0)"><path stroke-width="2" stroke="#f5a623" d="M-99,13.5C-99,13.5,-120.5,33.5,-120.5,33.5" /></g></g></g></g></g></g><g visibility="hidden" id="i23"><animate repeatCount="indefinite" begin="0s" calcMode="discrete" dur="3.667s" values="hidden; visible; hidden; hidden" keyTimes="0; 0.255023; 0.32703; 1" attributeName="visibility" /><g transform="translate(128.625,165.75)"><animateTransform repeatCount="indefinite" type="translate" attributeName="transform" dur="3.667s" begin="0s" calcMode="spline" values="128.625 165.75; 128.625 165.75; 97.625 164.25; 69.125 161.25; 59.375 161; 58.625 160.25; 58.625 160.25" keyTimes="0; 0.254545; 0.263636; 0.3; 0.318182; 0.327273; 1" keySplines="0 0 1 1; 0 0 1 1; 0 0 1 1; 0 0 1 1; 0 0 1 1; 0 0 1 1" fill="freeze" /><g transform="rotate(47.81)"><g transform="scale(1,1)"><animateTransform repeatCount="indefinite" type="scale" attributeName="transform" dur="3.667s" begin="0s" calcMode="spline" values="1 1; 1 1; 0.78 0.78; 0.473 0.473; 0.304 0.304; 0.199 0.199; 0.199 0.199" keyTimes="0; 0.254545; 0.263636; 0.3; 0.318182; 0.327273; 1" keySplines="0 0 1 1; 0 0 1 1; 0 0 1 1; 0 0 1 1; 0 0 1 1; 0 0 1 1" fill="freeze" /><g transform="translate(110.125,-23.75)"><g id="i20" transform="matrix(1,0,0,1,0,0)"><path stroke-width="2" stroke="#f5a623" d="M-99,13.5C-99,13.5,-120.5,33.5,-120.5,33.5" /></g></g></g></g></g></g><g visibility="hidden" id="i24"><animate repeatCount="indefinite" begin="0s" calcMode="discrete" dur="3.667s" values="hidden; visible; hidden; hidden" keyTimes="0; 0.255023; 0.336031; 1" attributeName="visibility" /><g transform="translate(205.125,258.5)"><animateTransform repeatCount="indefinite" type="translate" attributeName="transform" dur="3.667s" begin="0s" calcMode="spline" values="205.125 258.5; 205.125 258.5; 212.375 295.25; 212.375 304.5; 212.375 304.5" keyTimes="0; 0.254545; 0.281818; 0.327273; 1" keySplines="0 0 1 1; 0 0 1 1; 0 0 1 1; 0 0 1 1" fill="freeze" /><g transform="rotate(-57.654)"><g transform="scale(1,1)"><animateTransform repeatCount="indefinite" type="scale" attributeName="transform" dur="3.667s" begin="0s" calcMode="spline" values="1 1; 1 1; 0.718 0.718; 0.227 0.227; 0.227 0.227" keyTimes="0; 0.254545; 0.281818; 0.327273; 1" keySplines="0 0 1 1; 0 0 1 1; 0 0 1 1; 0 0 1 1" fill="freeze" /><g transform="translate(110.125,-23.75)"><g id="i20" transform="matrix(1,0,0,1,0,0)"><path stroke-width="2" stroke="#f5a623" d="M-99,13.5C-99,13.5,-120.5,33.5,-120.5,33.5" /></g></g></g></g></g></g><g transform="matrix(1.731,0,0,1.182,145.248,265.542)" visibility="hidden" id="i25"><animate repeatCount="indefinite" begin="0s" calcMode="discrete" dur="3.667s" values="hidden; visible; hidden; hidden" keyTimes="0; 0.427039; 0.43604; 1" attributeName="visibility" /><g id="i3" transform="matrix(1,0,0,1,43.525,7.925)"><path stroke-linejoin="round" stroke-linecap="round" stroke-width="1" stroke="#f5a623" fill-rule="evenodd" d="M-10.124,7.625C-10.124,7.625,-10.725,7.625,-10.725,7.625C-10.725,7.625,-12.574,7.625,-12.574,7.625M4.525,6.775C2.859,6.975,1.091,7.158,-0.775,7.325M-5.324,-7.325C-1.491,-7.192,2.059,-6.892,5.325,-6.425" /></g></g><g transform="matrix(1.731,0,0,1.182,145.248,265.542)" visibility="hidden" id="i26"><animate repeatCount="indefinite" begin="0s" calcMode="discrete" dur="3.667s" values="hidden; visible; hidden; hidden" keyTimes="0; 0.418038; 0.427039; 1" attributeName="visibility" /><g id="i3" transform="matrix(1,0,0,1,45.55,8.025)"><path stroke-linejoin="round" stroke-linecap="round" stroke-width="1" stroke="#f5a623" fill-rule="evenodd" d="M-16.25,-7.475C-16.25,-7.475,-15.6,-7.475,-15.6,-7.475C-14.667,-7.508,-13.716,-7.525,-12.75,-7.525C-10.116,-7.525,-7.616,-7.457,-5.25,-7.324M-9.45,7.475C-10.517,7.508,-11.616,7.525,-12.75,7.525C-12.75,7.525,-14.25,7.525,-14.25,7.525M16.25,3.376C14.717,4.109,12.65,4.758,10.05,5.324C8.217,5.758,6.283,6.126,4.25,6.426" /></g></g><g transform="matrix(1.731,0,0,1.182,145.248,265.542)" visibility="hidden" id="i27"><animate repeatCount="indefinite" begin="0s" calcMode="discrete" dur="3.667s" values="hidden; visible; hidden; hidden" keyTimes="0; 0.409037; 0.418038; 1" attributeName="visibility" /><g id="i3" transform="matrix(1,0,0,1,42.425,8.025)"><path stroke-linejoin="round" stroke-linecap="round" stroke-width="1" stroke="#f5a623" fill-rule="evenodd" d="M14.525,-4.975C19.959,-3.575,22.674,-1.908,22.674,0.025C22.674,2.125,19.508,3.892,13.174,5.324C12.775,5.425,12.342,5.525,11.876,5.625M-22.674,-6.925C-19.674,-7.225,-16.491,-7.408,-13.124,-7.475C-13.124,-7.475,-12.475,-7.475,-12.475,-7.475C-11.542,-7.509,-10.591,-7.525,-9.624,-7.525C-6.991,-7.525,-4.491,-7.458,-2.124,-7.325M-3.725,7.425C-5.159,7.458,-6.609,7.491,-8.076,7.525" /></g></g><g transform="matrix(1.731,0,0,1.182,145.248,265.542)" visibility="hidden" id="i28"><animate repeatCount="indefinite" begin="0s" calcMode="discrete" dur="3.667s" values="hidden; visible; hidden; hidden" keyTimes="0; 0.400036; 0.409037; 1" attributeName="visibility" /><g id="i3" transform="matrix(1,0,0,1,33.75,8.025)"><path stroke-linejoin="round" stroke-linecap="round" stroke-width="1" stroke="#f5a623" fill-rule="evenodd" d="M16.35,-6.325C18.284,-6.058,20.117,-5.725,21.85,-5.325C28.184,-3.858,31.35,-2.075,31.35,0.025C31.35,1.825,29.017,3.375,24.35,4.675M-31.35,-2.625C-29.817,-3.625,-27.299,-4.525,-23.799,-5.325C-19.366,-6.392,-14.266,-7.058,-8.5,-7.325M8.75,7.225C6.55,7.392,4.267,7.492,1.901,7.525M0.6,-7.525C2.333,-7.492,4.017,-7.442,5.651,-7.375" /></g></g><g transform="matrix(1.731,0,0,1.182,145.248,265.542)" visibility="hidden" id="i29"><animate repeatCount="indefinite" begin="0s" calcMode="discrete" dur="3.667s" values="hidden; visible; hidden; hidden" keyTimes="0; 0.391036; 0.400036; 1" attributeName="visibility" /><g id="i3" transform="matrix(1,0,0,1,32.8,8)"><path stroke-linejoin="round" stroke-linecap="round" stroke-width="1" stroke="#f5a623" fill-rule="evenodd" d="M-2.049,-7.451C-1.383,-7.484,-0.7,-7.5,-0.001,-7.5C8.933,-7.5,16.533,-6.767,22.799,-5.3C27.833,-4.1,30.867,-2.734,31.9,-1.201C32.166,-0.8,32.299,-0.384,32.299,0.049M-16.9,6.5C-19.001,6.167,-20.983,5.783,-22.85,5.349C-29.15,3.917,-32.299,2.15,-32.299,0.049C-32.299,-2.05,-29.15,-3.834,-22.85,-5.3C-20.717,-5.8,-18.434,-6.201,-16.001,-6.5M10.851,7.15C8.851,7.316,6.749,7.433,4.549,7.5" /></g></g><g transform="matrix(1.731,0,0,1.182,145.248,265.542)" visibility="hidden" id="i30"><animate repeatCount="indefinite" begin="0s" calcMode="discrete" dur="3.667s" values="hidden; visible; hidden; hidden" keyTimes="0; 0.382035; 0.391036; 1" attributeName="visibility" /><g id="i3" transform="matrix(1,0,0,1,28.8,8.025)"><path stroke-linejoin="round" stroke-linecap="round" stroke-width="1" stroke="#f5a623" fill-rule="evenodd" d="M-27.8,1.425C-28.133,0.958,-28.3,0.492,-28.3,0.025C-28.3,-2.075,-25.15,-3.858,-18.849,-5.325C-13.416,-6.625,-6.966,-7.342,0.5,-7.475C0.5,-7.475,1.151,-7.475,1.151,-7.475C2.084,-7.508,3.034,-7.525,4,-7.525C8.834,-7.525,13.267,-7.308,17.3,-6.875M28.3,4.975C27.834,5.075,27.334,5.192,26.8,5.325C20.533,6.791,12.934,7.525,4,7.525C4,7.525,1.151,7.525,1.151,7.525C0.95,7.492,0.734,7.475,0.5,7.475C-6.966,7.341,-13.416,6.625,-18.849,5.325C-19.483,5.159,-20.083,5.008,-20.65,4.875" /></g></g><g transform="matrix(1.731,0,0,1.182,145.248,265.542)" visibility="hidden" id="i31"><animate repeatCount="indefinite" begin="0s" calcMode="discrete" dur="3.667s" values="hidden; visible; hidden; hidden" keyTimes="0; 0.373034; 0.382035; 1" attributeName="visibility" /><g id="i3" transform="matrix(1,0,0,1,32.8,8.025)"><path stroke-linejoin="round" stroke-linecap="round" stroke-width="1" stroke="#f5a623" fill-rule="evenodd" d="M31.8,-1.325C32.134,-0.925,32.3,-0.475,32.3,0.025C32.3,2.125,29.134,3.892,22.8,5.324C16.533,6.791,8.933,7.525,0,7.525C0,7.525,-2.85,7.525,-2.85,7.525C-3.05,7.491,-3.267,7.475,-3.5,7.475C-5.667,7.442,-7.767,7.359,-9.8,7.225M-20.15,5.925C-21.083,5.725,-21.983,5.525,-22.85,5.324C-29.15,3.892,-32.3,2.125,-32.3,0.025C-32.3,-2.075,-29.15,-3.859,-22.85,-5.325C-17.417,-6.625,-10.966,-7.342,-3.5,-7.475C-3.5,-7.475,-2.85,-7.475,-2.85,-7.475C-1.917,-7.509,-0.966,-7.525,0,-7.525C0.867,-7.525,1.733,-7.509,2.6,-7.475" /></g></g><g transform="matrix(1.731,0,0,1.182,145.248,265.542)" visibility="hidden" id="i32"><animate repeatCount="indefinite" begin="0s" calcMode="discrete" dur="3.667s" values="hidden; visible; hidden; hidden" keyTimes="0; 0.364033; 0.373034; 1" attributeName="visibility" /><g id="i3" transform="matrix(1,0,0,1,32.8,8.4)"><path stroke-linejoin="round" stroke-linecap="round" stroke-width="1" stroke="#f5a623" fill-rule="evenodd" d="M15.8,-6.949C18.3,-6.616,20.634,-6.199,22.8,-5.699C29.134,-4.233,32.3,-2.449,32.3,-0.35C32.3,1.751,29.134,3.517,22.8,4.949C17.334,6.25,10.85,6.966,3.35,7.1M-10.8,6.751C-15.233,6.384,-19.25,5.783,-22.85,4.949C-29.15,3.517,-32.3,1.751,-32.3,-0.35C-32.3,-2.449,-29.15,-4.233,-22.85,-5.699C-20.283,-6.299,-17.517,-6.766,-14.55,-7.1" /></g></g><g transform="matrix(1.731,0,0,1.182,145.248,265.542)" visibility="hidden" id="i33"><animate repeatCount="indefinite" begin="0s" calcMode="discrete" dur="3.667s" values="hidden; visible; hidden; hidden" keyTimes="0; 0.355032; 0.364033; 1" attributeName="visibility" /><g id="i3" transform="matrix(1,0,0,1,32.6,8.025)"><path stroke-linejoin="round" stroke-linecap="round" stroke-width="1" stroke="#f5a623" fill-rule="evenodd" d="M-25.701,-4.475C-24.767,-4.775,-23.751,-5.058,-22.65,-5.325C-17.217,-6.625,-10.767,-7.342,-3.301,-7.475C-3.301,-7.475,-2.65,-7.475,-2.65,-7.475C-1.717,-7.508,-0.766,-7.525,0.2,-7.525C9.134,-7.525,16.732,-6.792,22.999,-5.325C28.033,-4.125,31.066,-2.758,32.1,-1.225M-0.9,7.525C-0.9,7.525,-2.65,7.525,-2.65,7.525C-2.851,7.492,-3.067,7.475,-3.301,7.475C-10.767,7.341,-17.217,6.625,-22.65,5.325C-28.951,3.892,-32.1,2.125,-32.1,0.025C-32.1,-0.242,-32.067,-0.492,-32.001,-0.725M28.999,3.475C27.499,4.142,25.499,4.758,22.999,5.325C21.266,5.725,19.433,6.075,17.499,6.375" /></g></g><g transform="matrix(1.731,0,0,1.182,145.248,265.542)" visibility="hidden" id="i34"><animate repeatCount="indefinite" begin="0s" calcMode="discrete" dur="3.667s" values="hidden; visible; hidden; hidden" keyTimes="0; 0.345031; 0.355032; 1" attributeName="visibility" /><g id="i3" transform="matrix(1,0,0,1,32.8,8.025)"><path stroke-linejoin="round" stroke-linecap="round" stroke-width="1" stroke="#f5a623" fill-rule="evenodd" d="M-31.2,2.075C-31.933,1.409,-32.3,0.725,-32.3,0.025C-32.3,-2.075,-29.15,-3.858,-22.849,-5.325C-17.416,-6.625,-10.966,-7.342,-3.5,-7.475C-3.5,-7.475,-2.849,-7.475,-2.849,-7.475C-1.916,-7.508,-0.966,-7.525,0,-7.525C7.867,-7.525,14.734,-6.941,20.601,-5.775M1.55,7.525C1.55,7.525,0,7.525,0,7.525C0,7.525,-2.849,7.525,-2.849,7.525C-3.05,7.492,-3.266,7.475,-3.5,7.475C-8.5,7.376,-13.066,7.025,-17.2,6.425M32.3,0.025C32.267,1.959,29.584,3.626,24.25,5.025" /></g></g><g transform="matrix(1.731,0,0,1.182,145.248,265.542)" visibility="hidden" id="i35"><animate repeatCount="indefinite" begin="0s" calcMode="discrete" dur="3.667s" values="hidden; visible; hidden; hidden" keyTimes="0; 0.336031; 0.345031; 1" attributeName="visibility" /><g id="i3" transform="matrix(1,0,0,1,20.225,6.875)"><path stroke-linejoin="round" stroke-linecap="round" stroke-width="1" stroke="#f5a623" d="M-10.825,6.375C-16.758,4.941,-19.725,3.208,-19.725,1.175C-19.725,-0.925,-16.575,-2.708,-10.275,-4.175C-4.842,-5.475,1.609,-6.192,9.075,-6.325C9.075,-6.325,9.725,-6.325,9.725,-6.325C10.658,-6.358,11.609,-6.375,12.575,-6.375C15.042,-6.375,17.425,-6.308,19.725,-6.175" /></g></g><g transform="matrix(1.731,0,0,1.182,145.248,265.542)" visibility="hidden" id="i36"><animate repeatCount="indefinite" begin="0s" calcMode="discrete" dur="3.667s" values="hidden; visible; hidden; hidden" keyTimes="0; 0.32703; 0.336031; 1" attributeName="visibility" /><g id="i3" transform="matrix(1,0,0,1,10.95,7.725)"><path stroke-linejoin="round" stroke-linecap="round" stroke-width="1" stroke="#f5a623" d="M5.15,6.775C2.983,6.442,0.933,6.058,-1,5.625C-7.3,4.192,-10.45,2.425,-10.45,0.325C-10.45,-1.775,-7.3,-3.558,-1,-5.025C2.433,-5.825,6.25,-6.408,10.45,-6.775" /></g></g><g transform="matrix(1.731,0,0,1.182,145.248,265.542)" visibility="hidden" id="i37"><animate repeatCount="indefinite" begin="0s" calcMode="discrete" dur="3.667s" values="hidden; visible; hidden; hidden" keyTimes="0; 0.318029; 0.32703; 1" attributeName="visibility" /><g id="i3" transform="matrix(1,0,0,1,13.075,12.05)"><path stroke-linejoin="round" stroke-linecap="round" stroke-width="1" stroke="#f5a623" d="M12.475,3.35C6.608,3.049,1.409,2.367,-3.125,1.299C-8.758,-0.001,-11.875,-1.55,-12.475,-3.35" /></g></g><g transform="matrix(1.731,0,0,1.182,145.248,265.542)" visibility="hidden" id="i38"><animate repeatCount="indefinite" begin="0s" calcMode="discrete" dur="3.667s" values="hidden; visible; hidden; hidden" keyTimes="0; 0.309028; 0.318029; 1" attributeName="visibility" /><g id="i3" transform="matrix(1,0,0,1,18.925,14.2)"><path stroke-linejoin="round" stroke-linecap="round" stroke-width="1" stroke="#f5a623" d="M11.025,1.35C10.825,1.317,10.608,1.3,10.375,1.3C2.908,1.166,-3.542,0.451,-8.975,-0.85C-9.708,-1.016,-10.392,-1.183,-11.025,-1.35" /></g></g><g transform="matrix(1.731,0,0,1.182,145.248,265.542)" visibility="hidden" id="i39"><animate repeatCount="indefinite" begin="0s" calcMode="discrete" dur="3.667s" values="hidden; visible; hidden; hidden" keyTimes="0; 0.300027; 0.309028; 1" attributeName="visibility" /><g id="i3" transform="matrix(1,0,0,1,22.2,14.875)"><path stroke-linejoin="round" stroke-linecap="round" stroke-width="1" stroke="#f5a623" d="M7.85,0.675C7.583,0.642,7.333,0.625,7.1,0.625C1.567,0.491,-3.417,0.059,-7.85,-0.675" /></g></g><g transform="matrix(1.731,0,0,1.182,145.248,265.542)" visibility="hidden" id="i40"><animate repeatCount="indefinite" begin="0s" calcMode="discrete" dur="3.667s" values="hidden; visible; hidden; hidden" keyTimes="0; 0.291026; 0.300027; 1" attributeName="visibility" /><g id="i3" transform="matrix(1,0,0,1,23.65,15.125)"><path stroke-linejoin="round" stroke-linecap="round" stroke-width="1" stroke="#f5a623" d="M5.65,0.375C1.584,0.309,-2.183,0.059,-5.65,-0.375" /></g></g><g transform="matrix(1.731,0,0,1.182,145.248,265.542)" visibility="hidden" id="i41"><animate repeatCount="indefinite" begin="0s" calcMode="discrete" dur="3.667s" values="hidden; visible; hidden; hidden" keyTimes="0; 0.282026; 0.291026; 1" attributeName="visibility" /><g id="i3"><path stroke-linejoin="round" stroke-linecap="round" stroke-width="1" stroke="#f5a623" d="M26.25,15.65C26.25,15.65,30.9,15.65,30.9,15.65" /></g></g></svg>